<?xml version="1.0" standalone="no"?>
<!DOCTYPE svg PUBLIC "-//W3C//DTD SVG 20010904//EN"
 "http://www.w3.org/TR/2001/REC-SVG-20010904/DTD/svg10.dtd">
<svg version="1.0" xmlns="http://www.w3.org/2000/svg"
 width="1137.000000pt" height="1137.000000pt" viewBox="0 0 1137.000000 1137.000000"
 preserveAspectRatio="xMidYMid meet">
<metadata>
Created by potrace 1.11, written by Peter Selinger 2001-2013
</metadata>
<g transform="translate(0.000000,1137.000000) scale(0.100000,-0.100000)"
fill="#000000" stroke="none">
<path d="M5397 10844 c-1 -1 -85 -4 -185 -7 -101 -3 -186 -8 -189 -11 -4 -3
-12 -1 -20 5 -8 7 -13 7 -13 2 0 -6 -21 -11 -47 -12 -27 0 -59 -3 -73 -6 -14
-3 -45 -7 -70 -10 -25 -3 -63 -8 -85 -11 -22 -4 -57 -7 -77 -8 -21 0 -38 -4
-38 -8 0 -5 -3 -7 -7 -6 -5 1 -28 -2 -53 -7 -25 -4 -56 -9 -70 -11 -14 -1 -34
-5 -45 -7 -28 -7 -105 -25 -135 -31 -59 -12 -199 -48 -240 -61 -110 -36 -183
-54 -193 -48 -5 3 -7 2 -4 -4 4 -5 -39 -24 -98 -42 -58 -18 -107 -37 -111 -42
-3 -5 -12 -9 -21 -9 -8 0 -29 -6 -46 -14 -68 -31 -109 -46 -117 -41 -4 3 -10
-2 -14 -10 -3 -8 -11 -15 -18 -15 -7 0 -42 -14 -78 -31 -231 -111 -331 -162
-336 -171 -3 -5 -13 -7 -22 -3 -9 3 -13 3 -9 -1 7 -7 -17 -24 -104 -72 -72
-39 -158 -93 -269 -169 -30 -21 -58 -37 -62 -35 -5 1 -8 -2 -8 -6 0 -5 -26
-26 -57 -48 -66 -44 -77 -53 -101 -75 -9 -8 -37 -31 -62 -49 -25 -19 -51 -40
-58 -47 -8 -7 -18 -10 -24 -7 -7 4 -8 2 -4 -4 3 -6 0 -14 -8 -19 -8 -4 -45
-35 -82 -68 -37 -33 -71 -59 -76 -58 -4 2 -8 -1 -8 -7 0 -5 -21 -29 -47 -52
-95 -88 -303 -301 -353 -364 -9 -10 -36 -42 -60 -70 -53 -60 -54 -62 -145
-179 -38 -49 -73 -91 -77 -93 -5 -2 -8 -8 -8 -13 0 -17 -87 -129 -94 -121 -4
4 -7 2 -5 -3 2 -11 -11 -47 -21 -55 -3 -3 -24 -34 -45 -70 -21 -36 -46 -74
-54 -85 -19 -24 -39 -57 -63 -107 -10 -21 -24 -38 -30 -38 -6 0 -9 -3 -6 -6 4
-3 -11 -38 -33 -77 -66 -121 -209 -416 -215 -442 -8 -35 -52 -124 -58 -118 -4
4 -4 0 0 -10 3 -9 2 -23 -4 -30 -5 -6 -12 -25 -16 -40 -4 -17 -11 -25 -18 -21
-7 4 -8 3 -4 -4 9 -15 -14 -93 -25 -86 -5 3 -6 -1 -3 -9 2 -7 -6 -45 -20 -83
-19 -55 -70 -228 -92 -314 -23 -92 -54 -237 -54 -251 0 -11 -3 -19 -8 -19 -4
0 -8 -12 -8 -27 -2 -70 -5 -84 -11 -80 -5 3 -8 -11 -9 -31 0 -21 -3 -50 -6
-67 -4 -16 -10 -61 -14 -100 -3 -38 -9 -74 -11 -78 -3 -4 -7 -47 -9 -94 -3
-48 -9 -92 -14 -98 -5 -6 -5 -17 0 -25 5 -8 6 -19 2 -25 -9 -13 -10 -725 -1
-720 3 3 7 -19 8 -47 1 -29 3 -54 6 -56 2 -3 0 -14 -6 -25 -8 -15 -8 -18 1
-12 9 6 11 -4 9 -38 -2 -25 -1 -43 3 -40 5 2 9 -13 9 -34 2 -50 4 -71 24 -189
20 -116 21 -120 30 -157 5 -17 3 -33 -5 -42 -11 -13 -10 -14 4 -9 9 4 16 3 14
-2 -1 -5 4 -33 10 -62 7 -30 10 -57 7 -62 -3 -5 -1 -10 5 -12 5 -1 11 -16 13
-33 2 -16 6 -37 9 -45 17 -46 28 -102 22 -112 -5 -7 -3 -8 6 -3 10 6 12 1 8
-18 -3 -15 -2 -24 2 -22 7 4 34 -92 30 -109 -1 -5 2 -12 7 -15 5 -3 20 -40 33
-81 13 -41 26 -79 29 -85 6 -12 9 -23 13 -50 2 -11 8 -23 15 -28 6 -4 10 -15
9 -25 -2 -9 0 -19 3 -22 8 -6 51 -109 51 -122 0 -5 -5 -6 -12 -2 -7 4 -8 3 -4
-5 4 -6 12 -9 17 -6 5 4 12 -7 15 -24 4 -17 11 -31 16 -31 6 0 8 -9 5 -20 -3
-11 -2 -18 3 -15 4 2 22 -30 41 -73 18 -42 37 -82 42 -89 5 -7 5 -18 1 -24 -4
-7 -3 -9 3 -6 13 8 26 -20 16 -35 -3 -6 -1 -8 4 -5 13 8 26 -20 16 -35 -3 -6
-2 -8 4 -5 6 4 15 -5 22 -20 10 -21 9 -28 -1 -35 -9 -6 -7 -8 7 -6 12 2 19 -2
17 -9 -1 -7 3 -13 9 -13 5 0 7 -5 4 -10 -3 -6 -1 -10 4 -10 6 0 11 -5 11 -11
0 -5 11 -26 25 -46 13 -20 22 -40 19 -45 -3 -4 0 -8 5 -8 6 0 11 -7 11 -15 0
-8 5 -15 11 -15 5 0 7 -5 4 -10 -3 -6 -2 -10 4 -10 6 0 17 -16 26 -35 9 -19
23 -39 31 -46 8 -6 14 -16 14 -21 0 -5 9 -21 20 -35 13 -16 18 -34 15 -47 -5
-15 -4 -17 3 -7 8 11 13 8 25 -15 8 -16 29 -46 46 -68 17 -21 28 -42 25 -47
-3 -5 0 -8 8 -7 7 2 12 -3 10 -9 -1 -7 3 -13 9 -13 6 0 8 -7 5 -16 -3 -8 -2
-13 3 -10 5 3 14 -1 21 -9 12 -14 7 -19 -13 -16 -5 1 -6 -3 -2 -8 3 -6 12 -8
19 -5 16 6 48 -34 39 -50 -3 -6 -3 -8 2 -4 4 4 14 0 23 -8 13 -14 13 -17 1
-26 -11 -8 -10 -9 4 -4 13 4 23 -3 35 -24 9 -16 20 -30 25 -30 4 0 7 -4 7 -10
0 -5 10 -20 23 -32 49 -52 86 -101 81 -110 -3 -4 0 -7 8 -6 7 2 12 -3 10 -10
-1 -6 4 -11 10 -10 8 2 12 -7 11 -22 -1 -14 1 -20 3 -13 6 14 34 6 34 -11 0
-6 9 -17 20 -24 12 -7 18 -18 14 -24 -4 -6 -3 -8 3 -5 10 6 103 -88 103 -105
0 -5 4 -7 9 -4 10 6 26 -23 22 -39 -2 -5 1 -6 5 -2 5 4 20 -3 34 -17 72 -71
184 -176 187 -176 2 0 17 -12 35 -28 72 -63 103 -95 100 -104 -1 -5 2 -7 7 -3
10 5 32 -9 73 -47 10 -10 18 -15 18 -11 0 3 15 -9 33 -28 18 -19 35 -34 38
-35 15 -2 58 -38 53 -45 -3 -5 1 -6 9 -3 9 3 22 -4 31 -18 9 -12 16 -19 16
-15 0 5 127 -79 165 -110 6 -5 31 -19 58 -33 26 -14 47 -31 47 -37 0 -7 3 -12
8 -12 19 3 33 -2 27 -11 -3 -5 0 -7 7 -5 8 3 23 -3 34 -14 11 -10 30 -22 42
-25 12 -4 20 -12 17 -17 -3 -5 1 -6 9 -3 9 3 16 1 16 -6 0 -6 5 -8 12 -4 8 5
9 2 5 -10 -4 -10 -3 -15 3 -11 15 9 220 -98 220 -115 0 -12 2 -13 9 -1 7 11
13 9 29 -7 11 -11 22 -18 25 -16 2 3 21 -3 41 -12 26 -13 33 -20 24 -27 -9 -6
-8 -7 5 -3 9 3 42 -6 72 -19 29 -14 59 -25 64 -25 6 0 11 -4 11 -10 0 -5 6
-10 14 -10 8 0 27 -5 43 -11 22 -8 24 -12 13 -19 -9 -6 -10 -10 -3 -10 6 0 15
4 18 10 4 6 18 4 38 -7 18 -9 41 -18 52 -20 10 -2 23 -9 27 -16 4 -6 8 -8 8
-4 0 4 9 3 21 -3 11 -6 28 -13 37 -15 43 -9 73 -26 66 -37 -6 -10 -4 -10 8 0
18 15 68 0 68 -20 0 -9 3 -8 10 2 6 10 10 11 10 2 0 -6 3 -11 8 -10 13 3 122
-25 122 -32 0 -4 6 -7 13 -8 19 -1 68 -12 112 -24 22 -6 43 -11 48 -10 4 1 7
-1 7 -5 0 -5 10 -9 23 -9 12 -1 31 -4 42 -7 11 -3 29 -6 40 -6 17 -1 18 -3 5
-11 -11 -8 -8 -9 13 -4 19 4 27 2 27 -7 0 -11 3 -11 10 1 6 9 10 11 10 3 0 -7
7 -10 15 -7 8 3 20 2 26 -2 7 -4 31 -9 53 -10 61 -5 88 -13 80 -25 -4 -7 1 -7
15 0 20 11 23 8 20 -16 -1 -5 -5 -7 -9 -6 -10 3 -7 -24 5 -34 4 -4 5 -3 2 3
-4 7 0 17 8 24 7 6 11 19 9 28 -5 14 -2 13 10 -2 9 -11 16 -14 16 -8 0 8 9 10
23 7 33 -8 69 -13 91 -14 13 -1 16 -6 12 -18 -5 -16 -4 -16 7 -3 18 23 41 25
33 3 -6 -14 -5 -16 5 -5 20 18 67 15 72 -5 4 -15 5 -15 6 -2 1 12 8 15 26 11
14 -2 22 -9 18 -15 -4 -6 -1 -7 8 -1 20 12 38 14 45 3 3 -5 12 -5 23 1 10 5
21 7 24 4 5 -6 59 -12 134 -15 23 -1 40 -6 37 -10 -2 -4 1 -11 7 -15 8 -4 9
-3 5 5 -11 17 22 25 41 10 12 -10 15 -10 9 -1 -4 6 -3 12 3 12 5 0 12 -6 14
-12 4 -10 6 -10 6 0 1 6 6 12 12 12 5 0 7 -6 3 -12 -6 -10 -4 -10 7 0 20 18
33 15 18 -6 -13 -16 -12 -16 4 -3 23 18 307 24 307 7 0 -7 3 -7 8 0 4 7 55 14
122 18 63 4 118 10 124 13 5 4 6 1 1 -7 -6 -10 -4 -11 6 -4 8 4 23 9 34 10 11
1 37 4 59 8 36 6 38 5 25 -11 -13 -17 -13 -17 7 0 11 9 24 14 27 10 4 -3 7 -2
7 4 0 5 7 10 15 10 8 0 12 -4 9 -8 -2 -4 1 -11 7 -15 8 -4 9 -3 5 5 -9 14 3
18 72 25 29 4 56 7 60 7 20 3 23 -3 11 -18 -13 -16 -12 -17 3 -4 10 7 15 17
12 22 -3 5 1 9 8 10 7 0 20 2 28 4 8 2 31 6 50 9 19 4 46 8 60 11 54 10 96 18
110 20 8 1 28 7 44 14 16 6 35 10 43 7 7 -3 13 0 13 6 0 6 3 9 6 6 3 -4 19 -2
35 2 31 9 62 4 54 -9 -2 -4 2 -8 10 -8 11 0 12 4 3 14 -15 19 -6 25 40 26 22
1 40 6 39 11 -2 8 15 14 58 19 11 1 23 6 27 12 4 5 19 -1 35 -15 24 -21 25
-22 9 -3 -15 18 -16 23 -5 27 8 2 23 7 34 12 11 4 26 6 33 5 6 -1 12 2 12 7 0
5 18 14 40 20 27 7 40 7 40 0 0 -6 9 0 20 13 10 13 19 20 20 16 0 -4 9 -3 19
3 14 7 21 6 24 -3 4 -9 6 -9 6 0 1 7 10 17 21 23 17 9 24 7 38 -7 9 -10 14
-14 10 -9 -12 15 -10 38 2 31 6 -3 10 -1 10 4 0 6 5 11 11 11 5 0 8 -4 4 -9
-3 -5 -1 -13 5 -16 6 -4 10 -3 9 2 -3 19 2 33 13 33 6 0 67 25 135 55 68 30
131 55 139 55 7 0 14 3 14 8 0 4 11 12 25 19 14 6 23 8 20 4 -2 -4 2 -8 9 -8
8 0 12 7 8 15 -3 10 -1 13 6 8 7 -4 12 -2 12 4 0 7 7 9 16 6 8 -3 13 -2 10 3
-7 11 43 33 56 25 6 -4 8 -3 5 3 -4 5 24 25 61 43 37 18 79 42 95 52 15 11 27
17 27 13 0 -3 10 4 22 15 12 11 27 19 33 16 6 -2 16 3 22 12 6 10 30 28 53 41
24 13 40 20 37 14 -7 -12 29 -10 40 2 5 4 3 5 -4 1 -19 -11 -24 11 -6 25 11
10 14 10 9 2 -5 -9 -2 -11 8 -7 9 3 14 10 11 14 -3 4 2 11 11 14 25 10 27 7
13 -11 -13 -16 -12 -17 3 -5 10 8 14 20 11 29 -4 10 -2 14 4 10 6 -4 16 0 23
8 17 20 31 19 23 -2 -3 -10 -3 -15 1 -11 4 3 8 13 10 21 2 17 19 34 63 65 34
24 59 21 48 -5 -5 -13 -3 -14 10 -3 15 12 15 14 0 23 -13 7 -14 12 -4 23 6 8
16 14 21 14 5 0 16 7 25 15 8 8 18 13 23 10 5 -3 11 3 15 12 3 10 35 38 70 63
35 25 64 48 65 53 0 4 7 7 16 7 9 0 12 5 8 13 -4 6 -4 9 1 5 4 -4 16 2 26 14
11 11 19 17 19 12 0 -5 5 -2 10 6 6 10 10 11 10 2 0 -6 3 -11 8 -11 19 3 32
-2 32 -12 0 -8 -5 -8 -15 1 -12 10 -15 10 -15 -1 0 -11 -3 -11 -11 1 -9 13
-10 13 -6 0 2 -8 10 -14 17 -12 7 2 9 -5 5 -18 -4 -12 -2 -20 5 -20 6 0 8 -5
4 -13 -6 -9 -5 -9 7 0 16 13 54 11 55 -3 2 -23 17 -43 28 -37 6 3 8 2 3 -2 -4
-5 0 -17 10 -27 9 -11 11 -18 5 -18 -7 0 -12 -7 -12 -15 0 -12 3 -12 18 3 13
11 16 21 9 30 -6 8 -6 12 2 12 6 0 11 -4 11 -9 0 -13 25 -8 44 9 13 10 20 10
28 2 11 -11 2 -17 -23 -14 -3 1 -3 -11 0 -26 5 -25 6 -25 9 -4 2 12 8 20 13
17 5 -4 10 0 11 7 0 7 2 18 3 23 2 6 3 17 4 25 1 13 2 13 11 0 5 -8 10 -11 10
-7 0 4 9 3 20 -3 16 -9 18 -15 10 -30 -7 -14 -6 -18 5 -16 8 1 18 6 22 11 4 4
2 5 -6 0 -10 -6 -12 -2 -6 14 4 13 2 21 -5 21 -6 0 -8 5 -4 12 4 6 3 8 -4 4
-6 -3 -14 -1 -18 5 -4 7 -3 9 4 5 5 -3 12 0 14 6 3 8 12 0 21 -17 9 -16 16
-23 17 -15 0 13 1 13 11 0 8 -12 9 -9 4 10 -6 24 -5 24 9 6 21 -26 20 -13 0
22 -15 24 -13 24 15 -6 38 -39 40 -33 5 13 -18 24 -22 35 -13 41 8 4 9 3 5 -4
-10 -16 7 -15 23 1 8 6 12 8 9 2 -3 -5 3 -18 14 -27 10 -10 19 -13 19 -8 1 6
2 14 3 19 2 16 16 25 16 10 0 -11 2 -11 10 1 13 20 12 30 -1 30 -5 0 -8 -4 -4
-9 3 -6 -4 -8 -15 -6 -11 2 -18 0 -15 -5 3 -5 2 -11 -3 -14 -4 -2 -9 4 -9 16
-1 14 3 18 13 14 8 -3 17 1 20 9 4 8 10 13 14 10 5 -3 11 -1 15 5 4 6 10 8 15
5 4 -3 13 2 20 10 6 7 18 11 26 8 10 -4 13 0 8 13 -5 15 -4 16 4 5 12 -16 5
-41 -10 -38 -18 3 -20 -20 -3 -27 9 -3 13 -2 10 4 -3 6 1 13 9 16 9 3 13 10
10 15 -3 5 3 9 13 9 28 0 76 49 64 64 -8 9 -7 13 4 13 8 0 11 -5 8 -10 -4 -7
1 -8 13 -4 18 7 18 7 0 -8 -11 -8 -15 -15 -10 -15 6 0 15 5 21 11 8 8 13 8 17
0 4 -6 2 -11 -5 -11 -7 0 -10 -2 -7 -5 3 -3 12 -3 21 1 13 5 12 10 -11 32 -16
15 -20 23 -10 19 9 -3 22 1 29 9 10 13 15 13 35 -1 13 -9 24 -12 24 -8 1 5 7
-3 15 -17 16 -29 20 -19 4 11 -5 11 -13 17 -18 15 -4 -3 -13 4 -19 15 -12 18
-11 19 7 10 14 -8 22 -8 27 1 4 6 3 8 -4 4 -6 -3 -14 -1 -18 6 -4 7 -4 10 1 6
4 -4 14 -3 21 3 10 8 12 5 8 -15 -2 -15 0 -26 6 -26 6 0 8 5 5 10 -3 6 2 10
12 10 11 0 14 3 7 8 -13 8 -15 44 -2 36 5 -3 6 -10 3 -15 -9 -14 3 -11 25 8
16 14 17 20 7 32 -11 14 -10 14 6 2 16 -13 20 -13 28 0 6 10 9 11 9 1 0 -7 -7
-15 -15 -18 -8 -4 -12 -11 -9 -16 4 -6 11 -4 16 6 8 14 12 15 26 4 13 -11 14
-11 7 1 -6 11 -4 13 9 8 10 -4 20 -7 22 -7 3 0 2 -5 -2 -12 -5 -7 -3 -8 6 -3
10 6 9 11 -4 21 -12 8 -14 14 -6 19 8 5 7 11 -2 23 -12 13 -10 14 9 4 18 -10
23 -9 28 7 3 11 14 19 25 18 10 -1 17 -4 15 -8 -3 -3 2 -14 9 -24 10 -14 15
-15 21 -5 5 8 4 11 -2 7 -6 -4 -14 0 -17 9 -4 11 -2 15 7 11 8 -3 14 1 14 9 0
7 -3 11 -7 9 -4 -2 -7 2 -7 9 0 8 8 11 18 9 11 -3 15 -11 12 -21 -4 -10 -2
-13 5 -8 7 4 12 18 12 32 0 25 14 32 26 12 5 -7 2 -9 -7 -4 -8 4 -3 -2 10 -13
13 -12 28 -21 35 -21 6 1 2 6 -9 13 -18 11 -32 49 -16 44 3 -1 6 3 6 8 0 6 -4
9 -8 7 -5 -1 -6 2 -3 7 5 8 27 8 46 1 3 -1 10 -1 15 0 6 1 6 -2 2 -7 -5 -4
-13 -8 -18 -8 -5 0 -9 -4 -8 -9 0 -5 -5 -13 -13 -17 -8 -5 -9 -9 -2 -9 6 0 17
7 24 15 7 8 16 12 21 9 5 -3 17 0 26 6 15 9 14 10 -6 4 -15 -4 -21 -2 -17 4 4
6 -1 15 -10 20 -15 8 -15 10 0 15 10 4 15 3 11 -3 -5 -9 9 -14 18 -7 2 1 11
-4 20 -12 10 -7 17 -12 18 -10 6 32 5 40 -5 46 -10 6 -8 13 7 28 20 20 20 20
8 -2 -13 -26 3 -32 17 -7 8 15 10 15 15 0 4 -10 3 -15 -2 -12 -5 3 -12 -1 -15
-10 -8 -21 -8 -24 5 -24 5 0 7 5 4 10 -6 9 8 15 29 11 5 -1 3 5 -4 14 -11 13
-10 18 6 29 10 8 22 12 26 10 5 -3 8 3 8 13 0 15 2 16 10 3 10 -16 -7 -33 -25
-22 -5 3 -3 -3 5 -14 22 -29 24 -30 17 -12 -3 9 0 19 9 22 8 3 14 0 14 -6 0
-6 3 -8 6 -5 4 4 2 12 -3 19 -6 7 -9 21 -7 31 3 22 14 36 14 19 0 -6 10 -9 23
-6 12 3 35 5 50 6 15 1 30 4 32 8 2 4 -7 6 -20 4 -14 -1 -28 3 -32 9 -3 7 -2
9 2 4 5 -4 17 1 28 10 12 11 17 12 12 4 -6 -11 -3 -13 14 -8 18 4 21 2 16 -13
-3 -10 0 -22 6 -26 8 -4 9 -3 5 5 -11 17 22 64 37 54 18 -11 38 -13 31 -2 -3
5 -10 7 -15 4 -9 -6 -11 -1 -13 28 -1 6 9 13 22 13 12 1 22 -3 22 -8 0 -5 -10
-6 -22 -3 -23 7 -23 7 -3 -8 11 -9 22 -11 23 -6 3 6 10 5 18 -2 11 -9 10 -3
-3 19 -10 17 -21 28 -25 26 -4 -3 -5 2 -1 11 5 13 7 14 14 3 7 -11 12 -6 11
12 0 3 16 6 36 7 26 2 33 0 22 -6 -8 -5 -18 -7 -22 -5 -4 3 -8 0 -8 -5 0 -18
26 -12 45 9 10 11 23 19 29 18 7 -2 14 1 16 6 3 5 -3 10 -12 12 -10 1 -18 -1
-18 -5 0 -4 -9 -7 -20 -8 -11 -1 -20 3 -20 8 0 6 4 8 9 4 6 -3 19 5 31 17 12
13 19 16 16 8 -5 -11 1 -15 19 -16 14 -1 25 2 25 8 0 5 5 6 12 2 7 -4 8 -3 4
5 -4 6 -13 8 -19 5 -7 -4 -9 -4 -5 1 4 4 2 15 -5 23 -10 13 -9 14 1 8 7 -4 15
-1 18 9 5 13 9 14 15 4 4 -7 16 -13 26 -15 10 -1 27 -5 38 -8 l20 -7 -20 13
c-19 12 -33 59 -17 57 19 -3 33 2 27 11 -3 5 -13 6 -23 3 -9 -3 -14 -3 -10 1
3 4 12 8 20 10 7 1 20 6 28 10 8 5 12 6 8 1 -5 -5 1 -15 12 -22 11 -8 17 -19
14 -25 -4 -6 -2 -8 4 -5 14 9 8 43 -8 39 -6 -1 -8 2 -5 8 4 6 14 9 22 6 9 -4
11 -2 7 5 -4 7 -1 10 7 7 8 -3 13 -11 11 -17 -1 -7 2 -10 7 -7 12 8 9 30 -8
50 -8 10 -9 16 -3 16 6 0 14 -4 17 -10 8 -13 25 -13 25 1 0 5 -3 8 -7 6 -5 -3
-13 1 -20 8 -19 21 8 26 31 6 11 -9 16 -10 12 -3 -9 16 6 16 24 0 8 -7 6 -3
-4 10 -11 12 -14 22 -8 22 13 0 12 27 -1 47 -8 12 4 18 27 14 5 -1 6 5 3 13
-4 10 -1 13 9 9 27 -10 13 -29 -18 -24 -10 1 -9 -8 2 -34 8 -19 9 -19 9 3 1
13 5 20 11 17 6 -3 11 0 12 7 0 7 2 18 3 23 2 6 3 15 4 20 1 6 5 4 10 -3 7
-11 9 -11 14 1 6 15 -9 17 -30 4 -6 -4 -15 -2 -19 5 -4 7 -4 10 1 6 4 -4 13
-3 20 2 6 5 20 11 31 13 10 1 20 6 22 10 5 15 2 27 -8 27 -6 0 -9 -5 -8 -11 2
-6 -4 -13 -13 -14 -9 -2 -16 3 -16 11 0 7 4 11 8 9 3 -3 12 2 19 10 7 8 16 12
21 9 5 -3 6 2 3 11 -5 13 -9 13 -23 3 -14 -12 -14 -11 -3 4 8 9 11 22 8 27 -4
5 -1 13 5 17 7 4 9 3 5 -4 -3 -6 6 -23 20 -39 15 -15 21 -21 15 -12 -6 9 -7
20 -3 24 4 5 1 5 -5 1 -7 -4 -13 -2 -13 3 0 6 7 11 15 11 8 0 15 5 15 11 0 5
-4 8 -9 4 -5 -3 -13 0 -17 6 -5 8 -3 9 6 4 10 -6 12 -4 6 10 -7 18 -6 18 16 0
13 -11 17 -13 11 -5 -22 24 -14 34 9 14 16 -13 19 -14 10 -2 -10 13 -10 17 0
22 7 3 -3 3 -22 1 -31 -4 -33 -3 -12 7 12 6 22 15 22 20 0 5 -5 6 -12 2 -7 -4
-8 -3 -4 5 4 6 11 9 16 6 4 -3 11 2 14 11 9 24 7 31 -4 14 -8 -12 -10 -12 -10
-1 0 11 -3 11 -17 0 -16 -13 -17 -12 -4 3 7 10 18 15 23 12 6 -4 7 2 3 17 l-8
24 19 -20 c11 -12 15 -15 10 -7 -7 10 -3 12 18 8 15 -3 24 -1 21 5 -4 5 -10 7
-15 4 -5 -3 -15 1 -23 9 -8 8 -17 13 -19 11 -3 -3 -4 5 -3 18 1 17 8 22 27 21
22 0 24 3 15 17 -6 9 -16 15 -23 12 -6 -2 -15 0 -19 6 -4 7 1 8 12 4 16 -6 17
-5 3 12 -14 17 -14 17 7 5 18 -11 24 -12 37 -1 9 8 16 18 16 24 0 6 -6 2 -14
-9 -14 -19 -31 -14 -31 9 0 7 -5 12 -12 12 -6 0 -14 3 -18 7 -9 9 17 5 33 -5
7 -5 9 -13 6 -19 -4 -7 -2 -8 4 -4 14 8 0 41 -20 49 -10 4 -10 6 0 6 6 1 12 8
12 17 0 8 5 12 10 9 8 -5 7 -11 -1 -21 -7 -8 -7 -14 -1 -14 14 0 23 28 12 35
-6 4 -10 11 -10 17 0 7 4 7 13 -1 10 -8 14 -7 14 4 0 7 -3 13 -6 12 -3 -1 -8
3 -9 8 -11 30 -24 45 -35 39 -7 -4 -9 -4 -5 1 4 4 2 15 -5 24 -11 14 -10 14 6
2 15 -12 20 -12 30 -1 9 10 9 11 0 6 -15 -8 -18 10 -3 19 6 3 10 12 9 18 0 9
-2 9 -6 0 -6 -16 -33 8 -33 30 0 9 -6 18 -12 20 -10 4 -10 6 0 6 7 1 17 -9 22
-21 l9 -23 0 23 c1 16 5 21 14 16 7 -4 8 -3 4 2 -5 5 -16 9 -24 9 -9 0 -18 6
-21 14 -3 9 0 11 9 6 11 -6 11 -5 2 5 -6 7 -9 19 -6 26 3 8 0 14 -7 14 -6 0
-8 -5 -4 -11 3 -6 -5 -3 -20 6 -21 14 -24 20 -15 31 9 11 8 14 -1 14 -8 0 -11
3 -8 6 4 3 16 0 28 -6 18 -10 19 -14 8 -28 -12 -15 -11 -16 6 -2 17 14 17 15
-4 32 -20 16 -19 23 3 19 5 -1 5 4 2 10 -5 8 -10 8 -18 0 -6 -6 -18 -11 -27
-11 -12 1 -12 2 3 11 21 13 22 25 1 33 -14 5 -15 4 -4 -9 7 -8 8 -15 2 -15
-13 0 -23 28 -12 35 17 11 2 39 -28 55 -17 8 -32 19 -32 23 0 5 5 5 12 1 7 -5
8 -3 4 5 -5 7 -10 10 -13 7 -3 -3 -12 2 -20 10 -8 8 -19 11 -25 8 -6 -4 -8 -2
-5 3 4 6 0 13 -8 17 -8 3 -15 12 -15 19 0 7 -11 20 -25 27 -30 16 -31 25 -7
39 9 6 13 10 7 11 -5 0 -17 -5 -25 -10 -21 -13 -48 15 -44 46 1 14 0 23 -3 20
-4 -3 -13 0 -21 7 -9 6 -13 7 -10 2 4 -6 -1 -16 -11 -22 -14 -9 -18 -8 -18 3
0 7 4 11 9 8 4 -3 8 -1 8 4 0 5 -11 14 -25 20 -14 6 -25 8 -25 3 0 -5 6 -12
13 -14 9 -4 9 -6 -1 -6 -18 -1 -28 29 -12 39 8 5 9 9 1 14 -6 4 -11 2 -11 -4
0 -6 -4 -8 -10 -5 -6 3 -7 -1 -4 -12 5 -16 4 -16 -6 1 -10 15 -14 16 -21 5 -6
-10 -9 -10 -9 -2 0 7 7 16 16 21 11 6 13 11 5 16 -6 4 -11 2 -11 -3 0 -6 -5
-11 -11 -11 -5 0 -7 5 -3 12 4 6 3 8 -4 4 -6 -3 -9 -16 -7 -28 3 -11 1 -18 -2
-14 -12 12 -12 40 0 56 10 13 10 13 -4 2 -9 -7 -21 -12 -25 -11 -22 4 -35 -2
-28 -13 4 -7 3 -8 -5 -4 -9 6 -9 11 1 24 11 14 10 15 -7 8 -56 -22 -85 -14
-88 22 -1 22 -17 31 -17 10 0 -6 -3 -9 -6 -5 -3 3 -17 2 -31 -4 -18 -7 -22 -6
-16 4 4 6 8 18 9 25 6 34 14 44 27 33 10 -8 14 -7 14 4 0 8 -4 12 -9 9 -15 -9
-19 22 -7 52 7 16 13 35 15 42 11 54 29 110 34 107 3 -2 5 9 4 23 -1 15 3 37
7 50 5 13 11 39 13 58 3 20 9 41 13 47 5 7 8 22 7 35 0 12 2 22 6 22 4 0 6 14
5 30 -1 17 1 33 4 35 4 2 8 20 9 41 2 20 6 42 9 47 3 6 8 28 10 51 2 22 9 44
16 48 9 6 9 8 0 8 -7 0 -10 9 -7 22 5 25 10 64 20 147 10 82 11 86 23 83 6 -1
11 2 11 8 0 5 -7 10 -16 10 -11 0 -14 4 -8 13 5 6 9 36 9 65 0 28 3 52 7 52
11 0 5 23 -7 32 -6 5 -6 8 1 8 6 0 10 16 8 40 -1 22 2 38 6 35 5 -3 5 7 1 22
-4 16 -6 39 -5 53 3 33 6 292 4 305 -5 27 -4 52 2 73 5 15 4 21 -2 17 -6 -3
-10 -1 -10 4 0 6 6 11 13 11 8 0 8 3 1 8 -6 4 -11 26 -12 48 -2 23 -5 51 -7
63 -2 12 1 21 8 21 8 0 9 3 1 8 -10 7 -17 65 -18 169 -1 29 -4 46 -9 40 -5 -7
-7 2 -4 21 2 18 0 35 -5 38 -5 3 -1 12 9 20 16 13 16 14 1 8 -14 -5 -18 0 -19
22 0 16 -2 36 -4 44 -1 8 -5 31 -9 51 -3 20 -9 44 -12 54 -6 14 -4 16 7 10 12
-8 12 -6 0 8 -8 10 -11 20 -8 24 4 3 2 13 -3 23 -5 9 -12 32 -15 51 -3 19 -8
48 -12 64 -8 40 -14 76 -16 100 -1 11 -4 22 -7 25 -12 11 -41 150 -34 162 4 7
3 10 -2 5 -7 -7 -22 32 -37 98 -2 6 -6 15 -10 21 -4 7 -8 28 -9 47 -2 19 -6
33 -10 30 -8 -4 -11 11 -11 49 0 10 -3 15 -7 13 -4 -3 -10 5 -13 18 -2 12 -8
31 -12 41 -7 15 -5 18 6 12 8 -4 6 -1 -3 7 -10 8 -18 20 -18 26 0 7 -7 26 -16
43 -11 21 -12 28 -3 22 7 -4 4 6 -8 22 -11 16 -26 47 -33 69 -7 22 -42 104
-77 183 -35 78 -61 147 -57 154 4 6 3 8 -3 5 -6 -4 -35 42 -67 106 -89 176
-114 221 -131 238 -9 9 -17 26 -18 37 0 11 -4 19 -8 16 -9 -5 -21 25 -13 37 3
5 2 8 -3 7 -4 -2 -9 0 -10 5 -2 4 -12 17 -23 29 -11 12 -18 28 -15 36 3 7 0
10 -6 7 -6 -4 -13 2 -16 14 -3 12 -10 21 -15 21 -6 0 -7 7 -4 16 3 9 2 12 -5
9 -6 -4 -13 2 -16 14 -3 12 -10 21 -15 21 -6 0 -7 7 -4 16 3 8 2 13 -3 10 -8
-5 -70 77 -96 125 -5 11 -13 19 -17 19 -5 0 -8 5 -8 10 0 6 -8 18 -17 28 -27
29 -48 63 -45 74 1 5 -2 7 -7 4 -5 -4 -20 8 -33 26 -34 48 -47 65 -116 141
-24 27 -40 52 -36 59 4 6 3 8 -3 5 -12 -8 -75 61 -67 74 3 5 0 8 -8 7 -7 -2
-12 3 -10 10 1 8 -1 11 -6 8 -12 -7 -84 68 -75 78 5 4 2 6 -6 4 -8 -2 -20 8
-28 22 -7 14 -13 22 -13 17 0 -4 -38 30 -84 75 -46 46 -104 101 -129 122 -25
22 -43 44 -40 49 3 6 1 7 -4 4 -10 -6 -55 27 -115 85 -15 15 -28 24 -28 20 0
-4 -4 -2 -8 3 -9 13 -140 118 -174 140 -15 9 -26 20 -23 24 2 4 -2 8 -9 8 -11
0 -100 56 -116 73 -6 7 -116 79 -151 100 -14 8 -68 40 -120 71 -52 31 -113 67
-137 80 -28 16 -40 29 -36 39 4 12 2 12 -7 3 -9 -9 -22 -7 -55 9 -24 12 -40
26 -37 31 3 6 1 7 -5 3 -6 -3 -46 12 -89 34 -73 37 -230 110 -238 110 -2 0
-25 10 -52 22 -26 11 -54 22 -61 24 -8 1 -28 9 -45 17 -18 9 -44 19 -59 22
-16 4 -25 11 -22 16 3 5 -1 7 -8 4 -18 -7 -179 51 -170 60 4 5 2 6 -3 2 -12
-6 -209 46 -201 53 2 3 -5 5 -17 6 -21 1 -69 10 -74 15 -4 2 -8 3 -58 13 -22
4 -78 16 -125 28 -47 11 -100 22 -119 24 -19 3 -38 7 -44 11 -6 4 -27 7 -46 8
-47 3 -202 25 -221 32 -8 3 -46 7 -85 9 -38 2 -88 6 -110 9 -57 6 -433 23
-438 19z m4823 -6554 c0 -5 -8 -10 -17 -10 -15 0 -16 2 -3 10 19 12 20 12 20
0z m-36 -26 c3 -8 2 -12 -4 -9 -6 3 -10 10 -10 16 0 14 7 11 14 -7z m70 -12
c3 -5 -1 -9 -9 -9 -8 0 -15 4 -15 9 0 4 4 8 9 8 6 0 12 -4 15 -8z m120 -8 c3
-8 2 -12 -4 -9 -6 3 -10 10 -10 16 0 14 7 11 14 -7z m190 -95 c-3 -5 -10 -7
-15 -3 -5 3 -7 10 -3 15 3 5 10 7 15 3 5 -3 7 -10 3 -15z m216 -212 c20 -16
24 -38 5 -31 -8 4 -13 10 -10 14 3 5 -3 13 -12 19 -10 6 -13 10 -8 10 6 0 17
-5 25 -12z m5 -67 c3 -5 1 -10 -4 -10 -6 0 -11 5 -11 10 0 6 2 10 4 10 3 0 8
-4 11 -10z m63 -141 c-3 -8 -7 -3 -11 10 -4 17 -3 21 5 13 5 -5 8 -16 6 -23z
m37 -89 c3 -5 1 -10 -4 -10 -6 0 -11 5 -11 10 0 6 2 10 4 10 3 0 8 -4 11 -10z
m11 -95 c1 -8 -4 -19 -10 -25 -10 -7 -12 -3 -10 18 1 15 2 29 3 31 2 8 15 -10
17 -24z m-230 -614 c-4 -5 -2 -11 3 -13 5 -1 4 -11 -4 -21 -11 -16 -13 -16
-19 -2 -4 10 -2 14 5 9 8 -4 9 1 4 15 -4 13 -2 21 5 21 6 0 9 -4 6 -9z m-52
-100 c3 -3 -3 -7 -12 -7 -9 -1 -23 -3 -31 -5 -7 -2 -15 1 -18 7 -4 12 54 17
61 5z m-130 -87 c3 -8 2 -12 -4 -9 -6 3 -10 1 -10 -6 0 -7 -2 -10 -5 -7 -5 5
4 38 10 38 2 0 6 -7 9 -16z m-74 -54 c6 -11 8 -20 6 -20 -3 0 -10 9 -16 20 -6
11 -8 20 -6 20 3 0 10 -9 16 -20z m-212 -152 c-16 -16 -42 -22 -34 -9 4 5 0
12 -6 15 -7 3 -3 3 9 1 12 -3 24 -1 28 5 4 6 9 9 12 6 3 -3 -1 -11 -9 -18z
m-224 -86 c2 -4 -4 -8 -14 -8 -10 0 -16 4 -14 8 3 4 9 8 14 8 5 0 11 -4 14 -8z
m-75 -78 c4 3 8 -1 8 -9 0 -10 -4 -12 -12 -5 -7 5 -14 8 -16 5 -3 -2 -6 6 -6
18 -2 20 -1 20 8 4 6 -9 14 -15 18 -13z m-209 -86 c0 -4 -6 -8 -14 -8 -8 0
-17 4 -20 8 -2 4 4 8 15 8 10 0 19 -4 19 -8z m-62 -33 c-3 -3 -9 2 -12 12 -6
14 -5 15 5 6 7 -7 10 -15 7 -18z m-61 -10 c0 -8 -4 -12 -9 -9 -5 3 -6 10 -3
15 9 13 12 11 12 -6z m43 -20 c0 -12 -19 -12 -23 0 -4 9 -1 12 9 8 7 -3 14 -7
14 -8z m-320 -155 c0 -5 -12 -17 -26 -26 -22 -15 -27 -15 -35 -3 -5 8 -9 19
-9 24 1 6 5 2 11 -7 8 -15 13 -16 29 -6 10 7 16 16 14 20 -3 4 0 8 5 8 6 0 11
-4 11 -10z m-572 -135 c-3 -3 -9 2 -12 12 -6 14 -5 15 5 6 7 -7 10 -15 7 -18z
m-28 -1 c0 -8 -5 -12 -10 -9 -6 4 -8 11 -5 16 9 14 15 11 15 -7z m303 -20 c3
-3 3 -13 0 -21 -5 -12 -7 -12 -14 -1 -15 23 -4 40 14 22z m-205 -49 c-3 -3 -9
2 -12 12 -6 14 -5 15 5 6 7 -7 10 -15 7 -18z"/>
<path d="M1280 8730 c-9 -6 -10 -10 -3 -10 6 0 15 5 18 10 8 12 4 12 -15 0z"/>
<path d="M10206 7308 c3 -5 10 -6 15 -3 13 9 11 12 -6 12 -8 0 -12 -4 -9 -9z"/>
<path d="M10275 7251 c-3 -5 -2 -12 3 -15 5 -3 9 1 9 9 0 17 -3 19 -12 6z"/>
<path d="M10365 6770 c-3 -6 1 -7 9 -4 18 7 21 14 7 14 -6 0 -13 -4 -16 -10z"/>
<path d="M10376 6708 c3 -5 10 -6 15 -3 13 9 11 12 -6 12 -8 0 -12 -4 -9 -9z"/>
<path d="M10476 6617 c3 -10 9 -15 12 -12 3 3 0 11 -7 18 -10 9 -11 8 -5 -6z"/>
<path d="M10410 6576 c0 -2 7 -7 16 -10 8 -3 12 -2 9 4 -6 10 -25 14 -25 6z"/>
<path d="M10510 6416 c0 -2 7 -7 16 -10 8 -3 12 -2 9 4 -6 10 -25 14 -25 6z"/>
<path d="M10434 6272 c4 -3 14 -7 22 -8 9 -1 13 0 10 4 -4 3 -14 7 -22 8 -9 1
-13 0 -10 -4z"/>
<path d="M10440 6190 c-12 -7 -10 -9 7 -7 12 0 19 5 17 9 -6 10 -6 10 -24 -2z"/>
<path d="M10410 6135 c0 -5 5 -17 10 -25 5 -8 10 -10 10 -5 0 6 -5 17 -10 25
-5 8 -10 11 -10 5z"/>
<path d="M10455 6030 c3 -5 8 -10 11 -10 2 0 4 5 4 10 0 6 -5 10 -11 10 -5 0
-7 -4 -4 -10z"/>
<path d="M10450 5990 c0 -5 5 -10 11 -10 5 0 7 5 4 10 -3 6 -8 10 -11 10 -2 0
-4 -4 -4 -10z"/>
<path d="M10550 5816 c0 -2 7 -7 16 -10 8 -3 12 -2 9 4 -6 10 -25 14 -25 6z"/>
<path d="M10495 5730 c3 -5 8 -10 11 -10 2 0 4 5 4 10 0 6 -5 10 -11 10 -5 0
-7 -4 -4 -10z"/>
<path d="M10496 5632 c-3 -5 1 -9 9 -9 8 0 12 4 9 9 -3 4 -7 8 -9 8 -2 0 -6
-4 -9 -8z"/>
<path d="M10436 5603 c-6 -14 -5 -15 5 -6 7 7 10 15 7 18 -3 3 -9 -2 -12 -12z"/>
<path d="M10455 5510 c3 -5 8 -10 11 -10 2 0 4 5 4 10 0 6 -5 10 -11 10 -5 0
-7 -4 -4 -10z"/>
<path d="M10450 5469 c0 -5 5 -7 10 -4 6 3 10 8 10 11 0 2 -4 4 -10 4 -5 0
-10 -5 -10 -11z"/>
<path d="M10475 5370 c-3 -5 -1 -10 4 -10 6 0 11 5 11 10 0 6 -2 10 -4 10 -3
0 -8 -4 -11 -10z"/>
<path d="M10426 5332 c-3 -5 1 -9 9 -9 8 0 12 4 9 9 -3 4 -7 8 -9 8 -2 0 -6
-4 -9 -8z"/>
<path d="M10429 5173 c-13 -16 -12 -17 4 -4 9 7 17 15 17 17 0 8 -8 3 -21 -13z"/>
<path d="M10427 5129 c7 -7 15 -10 18 -7 3 3 -2 9 -12 12 -14 6 -15 5 -6 -5z"/>
<path d="M10473 5125 c0 -8 4 -12 9 -9 5 3 6 10 3 15 -9 13 -12 11 -12 -6z"/>
<path d="M10455 5069 c-3 -4 2 -6 10 -5 21 3 28 13 10 13 -9 0 -18 -4 -20 -8z"/>
<path d="M10515 5050 c3 -5 8 -10 11 -10 2 0 4 5 4 10 0 6 -5 10 -11 10 -5 0
-7 -4 -4 -10z"/>
<path d="M10355 5001 c-3 -5 -2 -12 3 -15 5 -3 9 1 9 9 0 17 -3 19 -12 6z"/>
<path d="M10435 4951 c-3 -5 -2 -12 3 -15 5 -3 9 1 9 9 0 17 -3 19 -12 6z"/>
<path d="M10394 4930 c0 -13 4 -16 10 -10 7 7 7 13 0 20 -6 6 -10 3 -10 -10z"/>
<path d="M10415 4850 c-3 -5 -1 -10 4 -10 6 0 11 5 11 10 0 6 -2 10 -4 10 -3
0 -8 -4 -11 -10z"/>
<path d="M10315 4791 c-3 -5 -2 -12 3 -15 5 -3 9 1 9 9 0 17 -3 19 -12 6z"/>
<path d="M10413 4785 c0 -8 4 -12 9 -9 5 3 6 10 3 15 -9 13 -12 11 -12 -6z"/>
<path d="M10370 4749 c0 -5 5 -7 10 -4 6 3 10 8 10 11 0 2 -4 4 -10 4 -5 0
-10 -5 -10 -11z"/>
<path d="M10296 4692 c-3 -5 1 -9 9 -9 8 0 12 4 9 9 -3 4 -7 8 -9 8 -2 0 -6
-4 -9 -8z"/>
<path d="M10375 4670 c-3 -5 -1 -10 4 -10 6 0 11 5 11 10 0 6 -2 10 -4 10 -3
0 -8 -4 -11 -10z"/>
<path d="M10276 4632 c-3 -5 1 -9 9 -9 8 0 12 4 9 9 -3 4 -7 8 -9 8 -2 0 -6
-4 -9 -8z"/>
<path d="M10370 4610 c0 -5 5 -10 11 -10 5 0 7 5 4 10 -3 6 -8 10 -11 10 -2 0
-4 -4 -4 -10z"/>
<path d="M516 4537 c3 -10 9 -15 12 -12 3 3 0 11 -7 18 -10 9 -11 8 -5 -6z"/>
<path d="M10253 4496 c0 -15 22 -15 34 0 4 5 4 6 -1 2 -5 -4 -14 -3 -21 2 -8
7 -12 5 -12 -4z"/>
<path d="M547 4389 c7 -7 15 -10 18 -7 3 3 -2 9 -12 12 -14 6 -15 5 -6 -5z"/>
<path d="M10336 4392 c-2 -4 -1 -14 4 -22 7 -11 9 -9 7 8 -1 24 -3 26 -11 14z"/>
<path d="M10273 4345 c0 -8 4 -12 9 -9 5 3 6 10 3 15 -9 13 -12 11 -12 -6z"/>
<path d="M10200 4328 c0 -4 4 -8 9 -8 6 0 12 4 15 8 3 5 -1 9 -9 9 -8 0 -15
-4 -15 -9z"/>
<path d="M10271 4301 c-18 -12 -5 -31 20 -28 27 4 44 23 30 32 -6 3 -10 1 -9
-5 2 -7 -8 -14 -22 -16 -24 -4 -24 -3 -6 11 21 16 10 21 -13 6z"/>
<path d="M10610 4141 c-8 -6 -19 -7 -25 -3 -5 3 -4 -2 4 -11 17 -21 18 -21 31
3 12 22 11 24 -10 11z"/>
<path d="M10635 4090 c3 -5 14 -14 25 -20 15 -8 17 -7 13 11 -4 16 -8 18 -14
7 -7 -10 -9 -10 -9 0 0 6 -5 12 -11 12 -5 0 -7 -4 -4 -10z"/>
<path d="M10690 4059 c-7 -11 -10 -22 -8 -23 2 -1 10 -7 20 -14 13 -11 18 -10
24 0 4 7 4 10 0 6 -15 -13 -35 16 -25 35 6 9 7 17 5 17 -3 0 -10 -9 -16 -21z"/>
<path d="M10735 4010 c-3 -5 -1 -10 4 -10 6 0 11 5 11 10 0 6 -2 10 -4 10 -3
0 -8 -4 -11 -10z"/>
<path d="M10825 3800 c-3 -5 -1 -10 4 -10 6 0 11 5 11 10 0 6 -2 10 -4 10 -3
0 -8 -4 -11 -10z"/>
<path d="M10910 3595 c0 -5 5 -17 10 -25 5 -8 10 -10 10 -5 0 6 -5 17 -10 25
-5 8 -10 11 -10 5z"/>
<path d="M10935 3470 c-3 -5 -1 -10 4 -10 6 0 11 5 11 10 0 6 -2 10 -4 10 -3
0 -8 -4 -11 -10z"/>
<path d="M875 3410 c-3 -5 -1 -10 4 -10 6 0 11 5 11 10 0 6 -2 10 -4 10 -3 0
-8 -4 -11 -10z"/>
<path d="M10946 3368 c3 -5 10 -6 15 -3 13 9 11 12 -6 12 -8 0 -12 -4 -9 -9z"/>
<path d="M10871 3328 c5 -10 12 -18 14 -18 2 0 3 8 2 18 0 10 -7 19 -13 19 -9
0 -10 -5 -3 -19z"/>
<path d="M10867 3216 c-4 -10 -1 -13 8 -9 8 3 12 9 9 14 -7 12 -11 11 -17 -5z"/>
<path d="M1090 3216 c0 -2 7 -7 16 -10 8 -3 12 -2 9 4 -6 10 -25 14 -25 6z"/>
<path d="M10905 3170 c-3 -6 1 -7 9 -4 18 7 21 14 7 14 -6 0 -13 -4 -16 -10z"/>
<path d="M10835 3109 c-4 -6 -5 -12 -2 -15 2 -3 7 2 10 11 7 17 1 20 -8 4z"/>
<path d="M10876 3057 c3 -10 9 -15 12 -12 3 3 0 11 -7 18 -10 9 -11 8 -5 -6z"/>
<path d="M10806 3048 c3 -5 10 -6 15 -3 13 9 11 12 -6 12 -8 0 -12 -4 -9 -9z"/>
<path d="M1120 3010 c-9 -6 -10 -10 -3 -10 6 0 15 5 18 10 8 12 4 12 -15 0z"/>
<path d="M1293 2905 c0 -8 4 -12 9 -9 5 3 6 10 3 15 -9 13 -12 11 -12 -6z"/>
<path d="M10750 2910 c0 -5 5 -10 11 -10 5 0 7 5 4 10 -3 6 -8 10 -11 10 -2 0
-4 -4 -4 -10z"/>
<path d="M10715 2850 c-3 -5 -1 -10 4 -10 6 0 11 5 11 10 0 6 -2 10 -4 10 -3
0 -8 -4 -11 -10z"/>
<path d="M10750 2851 c0 -6 4 -13 10 -16 6 -3 7 1 4 9 -7 18 -14 21 -14 7z"/>
<path d="M10680 2810 c-9 -6 -10 -10 -3 -10 6 0 15 5 18 10 8 12 4 12 -15 0z"/>
<path d="M10756 2803 c-6 -14 -5 -15 5 -6 7 7 10 15 7 18 -3 3 -9 -2 -12 -12z"/>
<path d="M10534 2782 c3 -6 -1 -15 -10 -20 -13 -7 -14 -13 -5 -28 11 -18 11
-18 9 1 -2 15 2 19 17 18 11 -1 14 0 7 3 -6 3 -10 10 -7 14 3 5 0 12 -6 16 -7
4 -9 3 -5 -4z"/>
<path d="M1307 2769 c7 -7 15 -10 18 -7 3 3 -2 9 -12 12 -14 6 -15 5 -6 -5z"/>
<path d="M1450 2709 c0 -5 5 -7 10 -4 6 3 10 8 10 11 0 2 -4 4 -10 4 -5 0 -10
-5 -10 -11z"/>
<path d="M10437 2713 c-9 -15 28 -33 44 -21 11 8 11 9 -3 4 -10 -3 -21 1 -26
11 -5 8 -12 11 -15 6z"/>
<path d="M10510 2666 c7 -7 13 -7 20 0 6 6 3 10 -10 10 -13 0 -16 -4 -10 -10z"/>
<path d="M10616 2668 c3 -5 10 -6 15 -3 13 9 11 12 -6 12 -8 0 -12 -4 -9 -9z"/>
<path d="M10450 2660 c-11 -7 -11 -10 -2 -10 8 0 10 -5 6 -12 -4 -7 -3 -9 1
-5 7 6 17 37 12 37 -1 0 -9 -5 -17 -10z"/>
<path d="M10595 2630 c-3 -5 -1 -10 4 -10 6 0 11 5 11 10 0 6 -2 10 -4 10 -3
0 -8 -4 -11 -10z"/>
<path d="M10405 2620 c-16 -7 -17 -9 -3 -9 9 -1 20 4 23 9 7 11 7 11 -20 0z"/>
<path d="M10285 2600 c-3 -5 -1 -10 4 -10 6 0 11 5 11 10 0 6 -2 10 -4 10 -3
0 -8 -4 -11 -10z"/>
<path d="M10386 2588 c3 -5 10 -6 15 -3 13 9 11 12 -6 12 -8 0 -12 -4 -9 -9z"/>
<path d="M10301 2581 c-8 -5 -9 -11 -3 -15 5 -3 12 1 16 9 6 17 6 18 -13 6z"/>
<path d="M1570 2549 c0 -5 5 -7 10 -4 6 3 10 8 10 11 0 2 -4 4 -10 4 -5 0 -10
-5 -10 -11z"/>
<path d="M10319 2543 c-13 -16 -12 -17 4 -4 16 13 21 21 13 21 -2 0 -10 -8
-17 -17z"/>
<path d="M10499 2558 c-5 -18 -6 -38 -1 -34 7 8 12 36 6 36 -2 0 -4 -1 -5 -2z"/>
<path d="M10214 2512 c3 -5 0 -13 -6 -15 -9 -4 -10 -6 -1 -6 17 -1 25 16 12
25 -7 4 -9 3 -5 -4z"/>
<path d="M10304 2512 c4 -3 14 -7 22 -8 9 -1 13 0 10 4 -4 3 -14 7 -22 8 -9 1
-13 0 -10 -4z"/>
<path d="M10400 2510 c-12 -7 -10 -9 7 -7 12 0 19 5 17 9 -6 10 -6 10 -24 -2z"/>
<path d="M10456 2508 c3 -5 10 -6 15 -3 13 9 11 12 -6 12 -8 0 -12 -4 -9 -9z"/>
<path d="M10253 2495 c0 -8 4 -12 9 -9 5 3 6 10 3 15 -9 13 -12 11 -12 -6z"/>
<path d="M10047 2453 c3 -8 15 -18 27 -24 19 -9 19 -9 4 4 -24 19 -23 30 2 17
15 -8 18 -8 14 3 -2 7 -15 13 -28 13 -16 0 -22 -5 -19 -13z"/>
<path d="M10140 2447 c-12 -21 -12 -21 6 -7 10 8 20 15 22 16 2 1 -1 4 -5 7
-5 3 -15 -4 -23 -16z"/>
<path d="M10159 2423 c-13 -16 -12 -17 4 -4 16 13 21 21 13 21 -2 0 -10 -8
-17 -17z"/>
<path d="M10314 2432 c4 -3 14 -7 22 -8 9 -1 13 0 10 4 -4 3 -14 7 -22 8 -9 1
-13 0 -10 -4z"/>
<path d="M9980 2411 c0 -6 4 -13 10 -16 6 -3 7 1 4 9 -7 18 -14 21 -14 7z"/>
<path d="M10056 2403 c-6 -14 -5 -15 5 -6 7 7 10 15 7 18 -3 3 -9 -2 -12 -12z"/>
<path d="M10113 2403 c0 -9 4 -10 14 -2 7 6 13 12 13 14 0 1 -6 2 -13 2 -8 0
-14 -6 -14 -14z"/>
<path d="M1735 2390 c3 -5 8 -10 11 -10 2 0 4 5 4 10 0 6 -5 10 -11 10 -5 0
-7 -4 -4 -10z"/>
<path d="M10076 2383 c-6 -14 -5 -15 5 -6 7 7 10 15 7 18 -3 3 -9 -2 -12 -12z"/>
<path d="M10150 2389 c0 -5 5 -7 10 -4 6 3 10 8 10 11 0 2 -4 4 -10 4 -5 0
-10 -5 -10 -11z"/>
<path d="M1670 2371 c0 -6 4 -13 10 -16 6 -3 7 1 4 9 -7 18 -14 21 -14 7z"/>
<path d="M9985 2369 c-4 -6 -5 -12 -2 -15 2 -3 7 2 10 11 7 17 1 20 -8 4z"/>
<path d="M10110 2376 c0 -2 7 -7 16 -10 8 -3 12 -2 9 4 -6 10 -25 14 -25 6z"/>
<path d="M1733 2355 c0 -8 4 -12 9 -9 5 3 6 10 3 15 -9 13 -12 11 -12 -6z"/>
<path d="M10037 2342 c-15 -16 -15 -19 -2 -19 8 0 13 3 10 5 -3 3 0 11 6 19
17 20 5 16 -14 -5z"/>
<path d="M10076 2352 c-3 -5 1 -9 9 -9 8 0 12 4 9 9 -3 4 -7 8 -9 8 -2 0 -6
-4 -9 -8z"/>
<path d="M9950 2346 c0 -2 7 -9 15 -16 9 -7 15 -8 15 -2 0 5 -7 12 -15 16 -8
3 -15 4 -15 2z"/>
<path d="M1774 2332 c4 -3 14 -7 22 -8 9 -1 13 0 10 4 -4 3 -14 7 -22 8 -9 1
-13 0 -10 -4z"/>
<path d="M9876 2304 c-23 -23 -20 -30 4 -9 11 10 20 20 20 22 0 7 -9 2 -24
-13z"/>
<path d="M9976 2297 c3 -10 9 -15 12 -12 3 3 0 11 -7 18 -10 9 -11 8 -5 -6z"/>
<path d="M9833 2285 c0 -8 4 -12 9 -9 5 3 6 10 3 15 -9 13 -12 11 -12 -6z"/>
<path d="M9896 2283 c-6 -14 -5 -15 5 -6 7 7 10 15 7 18 -3 3 -9 -2 -12 -12z"/>
<path d="M9757 2265 c-4 -8 -3 -16 1 -19 4 -3 9 4 9 15 2 23 -3 25 -10 4z"/>
<path d="M9656 2243 c-4 -13 -12 -23 -17 -23 -5 0 -9 -5 -9 -12 0 -6 3 -8 7
-5 3 4 13 1 22 -6 14 -10 14 -10 4 4 -9 11 -9 19 -2 26 6 6 9 17 7 25 -3 8 -8
5 -12 -9z"/>
<path d="M1859 2238 c-5 -18 -6 -38 -1 -34 7 8 12 36 6 36 -2 0 -4 -1 -5 -2z"/>
<path d="M9975 2230 c-3 -5 -1 -10 4 -10 6 0 11 5 11 10 0 6 -2 10 -4 10 -3 0
-8 -4 -11 -10z"/>
<path d="M9675 2210 c3 -5 8 -10 11 -10 2 0 4 5 4 10 0 6 -5 10 -11 10 -5 0
-7 -4 -4 -10z"/>
<path d="M9711 2197 c-13 -21 -12 -21 5 -5 10 10 16 20 13 22 -3 3 -11 -5 -18
-17z"/>
<path d="M10026 2212 c-3 -5 1 -9 9 -9 8 0 12 4 9 9 -3 4 -7 8 -9 8 -2 0 -6
-4 -9 -8z"/>
<path d="M9675 2179 c-4 -6 -5 -12 -2 -15 2 -3 7 2 10 11 7 17 1 20 -8 4z"/>
<path d="M9515 2170 c-3 -5 -1 -10 4 -10 6 0 11 5 11 10 0 6 -2 10 -4 10 -3 0
-8 -4 -11 -10z"/>
<path d="M9956 2168 c3 -5 10 -6 15 -3 13 9 11 12 -6 12 -8 0 -12 -4 -9 -9z"/>
<path d="M9588 2158 c-7 -17 15 -19 29 -3 4 4 3 5 -4 2 -6 -4 -13 -2 -15 5 -3
8 -6 6 -10 -4z"/>
<path d="M9534 2149 c-3 -6 -3 -13 0 -16 3 -4 6 -1 6 5 0 6 7 9 15 6 8 -4 15
-4 15 -1 0 11 -30 16 -36 6z"/>
<path d="M9836 2143 c-6 -14 -5 -15 5 -6 7 7 10 15 7 18 -3 3 -9 -2 -12 -12z"/>
<path d="M9501 2134 c0 -11 3 -14 6 -6 3 7 2 16 -1 19 -3 4 -6 -2 -5 -13z"/>
<path d="M9650 2146 c0 -2 8 -10 18 -17 15 -13 16 -12 3 4 -13 16 -21 21 -21
13z"/>
<path d="M9633 2125 c0 -8 4 -12 9 -9 5 3 6 10 3 15 -9 13 -12 11 -12 -6z"/>
<path d="M9737 2125 c-4 -8 -3 -16 1 -19 4 -3 9 4 9 15 2 23 -3 25 -10 4z"/>
<path d="M2015 2110 c3 -5 8 -10 11 -10 2 0 4 5 4 10 0 6 -5 10 -11 10 -5 0
-7 -4 -4 -10z"/>
<path d="M9371 2106 c-9 -11 -9 -16 0 -22 7 -4 15 -2 17 4 2 7 9 9 15 5 7 -4
6 1 -2 10 -16 21 -16 20 -30 3z"/>
<path d="M9473 2104 c-3 -8 -2 -19 3 -24 5 -5 9 1 9 16 0 28 -3 30 -12 8z"/>
<path d="M9690 2109 c0 -5 5 -7 10 -4 6 3 10 8 10 11 0 2 -4 4 -10 4 -5 0 -10
-5 -10 -11z"/>
<path d="M9576 2097 c3 -10 9 -15 12 -12 3 3 0 11 -7 18 -10 9 -11 8 -5 -6z"/>
<path d="M1980 2096 c0 -2 8 -10 18 -17 15 -13 16 -12 3 4 -13 16 -21 21 -21
13z"/>
<path d="M9511 2077 c-13 -21 -12 -21 5 -5 10 10 16 20 13 22 -3 3 -11 -5 -18
-17z"/>
<path d="M9396 2071 c-3 -4 2 -16 12 -24 16 -15 18 -15 18 2 0 12 -5 17 -15
13 -9 -3 -12 -1 -7 6 4 7 5 12 2 12 -3 0 -7 -4 -10 -9z"/>
<path d="M9696 2072 c-2 -4 -1 -14 4 -22 7 -11 9 -9 7 8 -1 24 -3 26 -11 14z"/>
<path d="M9575 2050 c2 -27 10 -33 12 -10 1 11 -2 22 -6 24 -4 3 -7 -4 -6 -14z"/>
<path d="M9530 2029 c0 -5 5 -7 10 -4 6 3 10 8 10 11 0 2 -4 4 -10 4 -5 0 -10
-5 -10 -11z"/>
<path d="M9172 2008 c-7 -7 -17 -13 -22 -13 -6 0 -10 -3 -10 -7 0 -5 0 -12 0
-17 0 -5 9 -11 20 -14 16 -4 18 -2 11 11 -7 12 -5 22 6 34 18 20 14 25 -5 6z"/>
<path d="M9260 2010 c-8 -5 -10 -10 -5 -10 6 0 17 5 25 10 8 5 11 10 5 10 -5
0 -17 -5 -25 -10z"/>
<path d="M9394 2006 c1 -8 5 -18 8 -22 4 -3 5 1 4 10 -1 8 -5 18 -8 22 -4 3
-5 -1 -4 -10z"/>
<path d="M9427 2009 c7 -7 15 -10 18 -7 3 3 -2 9 -12 12 -14 6 -15 5 -6 -5z"/>
<path d="M9279 1998 c-7 -23 -4 -35 7 -35 10 0 11 4 3 13 -7 8 -6 14 3 17 10
4 10 6 1 6 -7 1 -13 0 -14 -1z"/>
<path d="M9313 1983 c0 -9 4 -10 14 -2 7 6 13 12 13 14 0 1 -6 2 -13 2 -8 0
-14 -6 -14 -14z"/>
<path d="M9350 1996 c0 -2 7 -7 16 -10 8 -3 12 -2 9 4 -6 10 -25 14 -25 6z"/>
<path d="M9231 1974 c0 -11 3 -14 6 -6 3 7 2 16 -1 19 -3 4 -6 -2 -5 -13z"/>
<path d="M8616 1962 c-3 -6 1 -13 10 -16 10 -4 13 -13 9 -28 -5 -20 -4 -21 5
-5 8 13 8 22 -3 38 -8 11 -18 16 -21 11z"/>
<path d="M9126 1933 c-6 -14 -5 -15 5 -6 7 7 10 15 7 18 -3 3 -9 -2 -12 -12z"/>
<path d="M9253 1937 c0 -19 34 -18 49 1 12 15 11 16 -4 3 -13 -10 -21 -11 -31
-2 -10 8 -14 7 -14 -2z"/>
<path d="M9330 1946 c0 -2 8 -10 18 -17 15 -13 16 -12 3 4 -13 16 -21 21 -21
13z"/>
<path d="M9433 1935 c0 -8 4 -12 9 -9 5 3 6 10 3 15 -9 13 -12 11 -12 -6z"/>
<path d="M8600 1930 c0 -5 5 -10 10 -10 6 0 10 5 10 10 0 6 -4 10 -10 10 -5 0
-10 -4 -10 -10z"/>
<path d="M9040 1932 c0 -5 7 -15 15 -22 8 -7 15 -9 15 -6 0 4 -7 14 -15 22 -8
9 -15 11 -15 6z"/>
<path d="M2215 1910 c-3 -5 -1 -10 4 -10 6 0 11 5 11 10 0 6 -2 10 -4 10 -3 0
-8 -4 -11 -10z"/>
<path d="M2250 1911 c0 -6 4 -13 10 -16 6 -3 7 1 4 9 -7 18 -14 21 -14 7z"/>
<path d="M8582 1906 c10 -7 15 -16 11 -20 -4 -4 0 -4 10 0 17 6 17 7 0 20 -10
7 -22 13 -28 13 -5 0 -2 -6 7 -13z"/>
<path d="M9160 1910 c-9 -6 -10 -10 -3 -10 6 0 15 5 18 10 8 12 4 12 -15 0z"/>
<path d="M8651 1894 c-1 -30 8 -35 40 -19 15 8 30 11 33 6 3 -5 -1 -11 -9 -15
-8 -3 -15 -11 -14 -18 0 -10 2 -10 6 0 2 6 11 12 19 12 9 0 13 -4 10 -9 -6
-10 24 -25 32 -16 3 3 1 5 -5 5 -10 0 -38 49 -35 62 3 12 -25 2 -44 -16 -18
-19 -19 -19 -25 5 -6 21 -7 22 -8 3z"/>
<path d="M9115 1899 c-11 -16 -1 -19 13 -3 7 8 8 14 3 14 -5 0 -13 -5 -16 -11z"/>
<path d="M9270 1906 c0 -2 8 -10 18 -17 15 -13 16 -12 3 4 -13 16 -21 21 -21
13z"/>
<path d="M8548 1893 c7 -3 16 -2 19 1 4 3 -2 6 -13 5 -11 0 -14 -3 -6 -6z"/>
<path d="M8521 1883 c-1 -17 16 -25 25 -12 4 7 3 9 -4 5 -5 -3 -13 0 -15 6 -4
9 -6 10 -6 1z"/>
<path d="M2250 1869 c0 -5 5 -7 10 -4 6 3 10 8 10 11 0 2 -4 4 -10 4 -5 0 -10
-5 -10 -11z"/>
<path d="M8560 1876 c0 -2 7 -7 16 -10 8 -3 12 -2 9 4 -6 10 -25 14 -25 6z"/>
<path d="M8618 1853 c5 -21 7 -23 10 -9 2 10 0 22 -6 28 -6 6 -7 0 -4 -19z"/>
<path d="M8906 1859 c3 -5 9 -7 14 -4 4 3 11 0 13 -5 3 -6 4 -5 3 1 -1 7 -10
13 -19 15 -9 1 -15 -2 -11 -7z"/>
<path d="M9515 1861 c-3 -5 -2 -12 3 -15 5 -3 9 1 9 9 0 17 -3 19 -12 6z"/>
<path d="M8513 1845 c0 -8 4 -12 9 -9 5 3 6 10 3 15 -9 13 -12 11 -12 -6z"/>
<path d="M8545 1850 c-3 -6 1 -7 9 -4 18 7 21 14 7 14 -6 0 -13 -4 -16 -10z"/>
<path d="M8664 1845 c-18 -15 -18 -15 0 -8 12 4 17 3 13 -4 -3 -5 0 -10 8 -10
10 0 12 4 5 12 -5 7 -7 15 -3 18 12 13 -3 7 -23 -8z"/>
<path d="M9015 1850 c-3 -5 3 -7 12 -5 10 1 25 -2 33 -8 12 -9 13 -9 3 3 -15
16 -41 22 -48 10z"/>
<path d="M9153 1843 c0 -9 4 -10 14 -2 7 6 13 12 13 14 0 1 -6 2 -13 2 -8 0
-14 -6 -14 -14z"/>
<path d="M2335 1830 c3 -5 8 -10 11 -10 2 0 4 5 4 10 0 6 -5 10 -11 10 -5 0
-7 -4 -4 -10z"/>
<path d="M8470 1830 c-11 -7 -11 -10 -2 -10 7 0 10 -5 6 -12 -4 -7 -3 -8 5 -4
6 4 9 11 6 16 -3 4 1 11 7 13 7 3 9 6 3 6 -5 0 -17 -4 -25 -9z"/>
<path d="M8915 1830 c3 -5 2 -10 -3 -10 -6 0 -13 -8 -16 -17 -6 -15 -5 -15 13
1 18 16 20 36 5 36 -3 0 -2 -4 1 -10z"/>
<path d="M8717 1824 c-3 -5 2 -15 12 -21 14 -9 18 -8 18 3 0 7 -4 11 -8 8 -4
-2 -9 1 -11 8 -3 7 -7 8 -11 2z"/>
<path d="M8813 1816 c-4 -5 -1 -12 5 -14 19 -6 26 -3 28 11 2 16 -24 19 -33 3z"/>
<path d="M9022 1814 c10 -10 20 -16 22 -13 3 3 -5 11 -17 18 -21 13 -21 12 -5
-5z"/>
<path d="M8600 1815 c0 -2 6 -8 13 -14 10 -8 14 -7 14 2 0 8 -6 14 -14 14 -7
0 -13 -1 -13 -2z"/>
<path d="M8993 1805 c0 -8 4 -12 9 -9 5 3 6 10 3 15 -9 13 -12 11 -12 -6z"/>
<path d="M8557 1799 c7 -7 15 -10 18 -7 3 3 -2 9 -12 12 -14 6 -15 5 -6 -5z"/>
<path d="M2335 1790 c3 -5 8 -10 11 -10 2 0 4 5 4 10 0 6 -5 10 -11 10 -5 0
-7 -4 -4 -10z"/>
<path d="M8434 1759 c-1 -22 1 -37 4 -35 7 8 10 66 3 70 -3 2 -7 -13 -7 -35z"/>
<path d="M8670 1786 c7 -7 13 -7 20 0 6 6 3 10 -10 10 -13 0 -16 -4 -10 -10z"/>
<path d="M9069 1773 c-13 -16 -12 -17 4 -4 16 13 21 21 13 21 -2 0 -10 -8 -17
-17z"/>
<path d="M8530 1771 c0 -6 4 -13 10 -16 6 -3 7 1 4 9 -7 18 -14 21 -14 7z"/>
<path d="M8769 1767 c6 -8 7 -18 3 -22 -4 -5 -1 -5 6 -1 10 6 10 11 1 22 -6 8
-14 14 -16 14 -3 0 0 -6 6 -13z"/>
<path d="M9025 1770 c-3 -6 1 -7 9 -4 18 7 21 14 7 14 -6 0 -13 -4 -16 -10z"/>
<path d="M8350 1766 c0 -2 8 -10 18 -17 15 -13 16 -12 3 4 -13 16 -21 21 -21
13z"/>
<path d="M8400 1750 c-9 -6 -10 -10 -3 -10 6 0 15 5 18 10 8 12 4 12 -15 0z"/>
<path d="M8975 1750 c-3 -5 -1 -10 4 -10 6 0 11 5 11 10 0 6 -2 10 -4 10 -3 0
-8 -4 -11 -10z"/>
<path d="M2415 1730 c-3 -5 -1 -10 4 -10 6 0 11 5 11 10 0 6 -2 10 -4 10 -3 0
-8 -4 -11 -10z"/>
<path d="M8486 1732 c-3 -5 1 -9 9 -9 8 0 12 4 9 9 -3 4 -7 8 -9 8 -2 0 -6 -4
-9 -8z"/>
<path d="M8650 1730 c0 -5 5 -10 11 -10 5 0 7 5 4 10 -3 6 -8 10 -11 10 -2 0
-4 -4 -4 -10z"/>
<path d="M8930 1730 c0 -5 5 -10 11 -10 5 0 7 5 4 10 -3 6 -8 10 -11 10 -2 0
-4 -4 -4 -10z"/>
<path d="M8265 1694 c-9 -15 -12 -23 -6 -20 11 7 35 46 28 46 -3 0 -12 -12
-22 -26z"/>
<path d="M8709 1693 c-13 -16 -12 -17 4 -4 16 13 21 21 13 21 -2 0 -10 -8 -17
-17z"/>
<path d="M8315 1690 c-3 -5 -1 -10 4 -10 6 0 11 5 11 10 0 6 -2 10 -4 10 -3 0
-8 -4 -11 -10z"/>
<path d="M8393 1683 c0 -9 4 -10 14 -2 7 6 13 12 13 14 0 1 -6 2 -13 2 -8 0
-14 -6 -14 -14z"/>
<path d="M8346 1672 c-2 -4 4 -8 14 -8 10 0 16 4 14 8 -3 4 -9 8 -14 8 -5 0
-11 -4 -14 -8z"/>
<path d="M8426 1652 c-3 -5 1 -9 9 -9 8 0 12 4 9 9 -3 4 -7 8 -9 8 -2 0 -6 -4
-9 -8z"/>
<path d="M8495 1649 c-3 -4 2 -6 10 -5 21 3 28 13 10 13 -9 0 -18 -4 -20 -8z"/>
<path d="M8260 1635 c0 -2 6 -8 13 -14 10 -8 14 -7 14 2 0 8 -6 14 -14 14 -7
0 -13 -1 -13 -2z"/>
<path d="M8190 1610 c0 -5 5 -10 11 -10 5 0 7 5 4 10 -3 6 -8 10 -11 10 -2 0
-4 -4 -4 -10z"/>
<path d="M2615 1590 c3 -5 8 -10 11 -10 2 0 4 5 4 10 0 6 -5 10 -11 10 -5 0
-7 -4 -4 -10z"/>
<path d="M8156 1592 c-3 -5 1 -9 9 -9 8 0 12 4 9 9 -3 4 -7 8 -9 8 -2 0 -6 -4
-9 -8z"/>
<path d="M8226 1592 c-2 -4 4 -8 14 -8 10 0 16 4 14 8 -3 4 -9 8 -14 8 -5 0
-11 -4 -14 -8z"/>
<path d="M8335 1590 c3 -5 8 -10 11 -10 2 0 4 5 4 10 0 6 -5 10 -11 10 -5 0
-7 -4 -4 -10z"/>
<path d="M2710 1587 c0 -2 6 -10 14 -16 11 -9 16 -9 22 1 4 7 4 10 -1 6 -4 -4
-14 -3 -22 3 -7 6 -13 9 -13 6z"/>
<path d="M2653 1561 c0 -11 5 -18 9 -15 4 3 5 11 1 19 -7 21 -12 19 -10 -4z"/>
<path d="M2695 1550 c3 -5 8 -10 11 -10 2 0 4 5 4 10 0 6 -5 10 -11 10 -5 0
-7 -4 -4 -10z"/>
<path d="M8035 1550 c-3 -5 -1 -10 4 -10 6 0 11 5 11 10 0 6 -2 10 -4 10 -3 0
-8 -4 -11 -10z"/>
<path d="M8099 1523 c-12 -16 -12 -17 2 -6 9 7 20 9 24 5 5 -4 5 -1 1 6 -9 16
-11 15 -27 -5z"/>
<path d="M2735 1510 c3 -5 8 -10 11 -10 2 0 4 5 4 10 0 6 -5 10 -11 10 -5 0
-7 -4 -4 -10z"/>
<path d="M8049 1493 c-13 -16 -12 -17 4 -4 16 13 21 21 13 21 -2 0 -10 -8 -17
-17z"/>
<path d="M2827 1489 c7 -7 15 -10 18 -7 3 3 -2 9 -12 12 -14 6 -15 5 -6 -5z"/>
<path d="M2770 1469 c0 -5 5 -7 10 -4 6 3 10 8 10 11 0 2 -4 4 -10 4 -5 0 -10
-5 -10 -11z"/>
<path d="M2900 1456 c0 -2 8 -10 18 -17 15 -13 16 -12 3 4 -13 16 -21 21 -21
13z"/>
<path d="M7879 1438 c-7 -23 -4 -35 7 -35 9 0 11 4 4 12 -5 7 -7 15 -3 18 3 4
3 7 0 7 -4 0 -7 -1 -8 -2z"/>
<path d="M7908 1433 c6 -2 9 -10 6 -15 -4 -7 -2 -8 5 -4 13 9 5 26 -12 25 -9
0 -8 -2 1 -6z"/>
<path d="M7962 1428 c-15 -15 -15 -28 0 -28 6 0 8 3 5 7 -4 3 -2 12 4 20 14
16 7 17 -9 1z"/>
<path d="M8025 1430 c-3 -6 1 -7 9 -4 18 7 21 14 7 14 -6 0 -13 -4 -16 -10z"/>
<path d="M7795 1410 c-3 -5 -1 -10 4 -10 6 0 11 5 11 10 0 6 -2 10 -4 10 -3 0
-8 -4 -11 -10z"/>
<path d="M8115 1411 c-3 -5 -2 -12 3 -15 5 -3 9 1 9 9 0 17 -3 19 -12 6z"/>
<path d="M2935 1390 c3 -5 8 -10 11 -10 2 0 4 5 4 10 0 6 -5 10 -11 10 -5 0
-7 -4 -4 -10z"/>
<path d="M7826 1392 c-2 -4 4 -8 14 -8 10 0 16 4 14 8 -3 4 -9 8 -14 8 -5 0
-11 -4 -14 -8z"/>
<path d="M7896 1377 c3 -10 9 -15 12 -12 3 3 0 11 -7 18 -10 9 -11 8 -5 -6z"/>
<path d="M7955 1381 c-3 -5 -2 -12 3 -15 5 -3 9 1 9 9 0 17 -3 19 -12 6z"/>
<path d="M2747 1369 c7 -7 15 -10 18 -7 3 3 -2 9 -12 12 -14 6 -15 5 -6 -5z"/>
<path d="M7754 1355 c0 -13 3 -22 7 -19 8 4 6 30 -2 38 -3 3 -5 -5 -5 -19z"/>
<path d="M7720 1350 c-9 -6 -10 -10 -3 -10 6 0 15 5 18 10 8 12 4 12 -15 0z"/>
<path d="M7678 1343 c7 -3 16 -2 19 1 4 3 -2 6 -13 5 -11 0 -14 -3 -6 -6z"/>
<path d="M3067 1329 c7 -7 15 -10 18 -7 3 3 -2 9 -12 12 -14 6 -15 5 -6 -5z"/>
<path d="M3136 1328 c3 -5 10 -6 15 -3 13 9 11 12 -6 12 -8 0 -12 -4 -9 -9z"/>
<path d="M3194 1306 c1 -8 5 -18 8 -22 4 -3 5 1 4 10 -1 8 -5 18 -8 22 -4 3
-5 -1 -4 -10z"/>
<path d="M3030 1290 c0 -5 5 -10 11 -10 5 0 7 5 4 10 -3 6 -8 10 -11 10 -2 0
-4 -4 -4 -10z"/>
<path d="M7630 1292 c0 -4 11 -8 25 -8 28 0 24 8 -5 13 -11 2 -20 -1 -20 -5z"/>
<path d="M3130 1269 c0 -5 5 -7 10 -4 6 3 10 8 10 11 0 2 -4 4 -10 4 -5 0 -10
-5 -10 -11z"/>
<path d="M7770 1269 c0 -5 5 -7 10 -4 6 3 10 8 10 11 0 2 -4 4 -10 4 -5 0 -10
-5 -10 -11z"/>
<path d="M7810 1269 c0 -5 5 -7 10 -4 6 3 10 8 10 11 0 2 -4 4 -10 4 -5 0 -10
-5 -10 -11z"/>
<path d="M7610 1266 c0 -2 8 -10 18 -17 15 -13 16 -12 3 4 -13 16 -21 21 -21
13z"/>
<path d="M3227 1249 c7 -7 15 -10 18 -7 3 3 -2 9 -12 12 -14 6 -15 5 -6 -5z"/>
<path d="M7500 1256 c0 -2 9 -6 20 -9 11 -3 18 -1 14 4 -5 9 -34 13 -34 5z"/>
<path d="M7666 1252 c-3 -5 1 -9 9 -9 8 0 12 4 9 9 -3 4 -7 8 -9 8 -2 0 -6 -4
-9 -8z"/>
<path d="M7596 1237 c3 -10 9 -15 12 -12 3 3 0 11 -7 18 -10 9 -11 8 -5 -6z"/>
<path d="M7433 1215 c0 -8 4 -15 9 -15 4 0 8 4 8 9 0 6 -4 12 -8 15 -5 3 -9
-1 -9 -9z"/>
<path d="M7585 1210 c10 -11 20 -20 23 -20 3 0 -3 9 -13 20 -10 11 -20 20 -23
20 -3 0 3 -9 13 -20z"/>
<path d="M7656 1217 c3 -10 9 -15 12 -12 3 3 0 11 -7 18 -10 9 -11 8 -5 -6z"/>
<path d="M7709 1213 c-13 -16 -12 -17 4 -4 9 7 17 15 17 17 0 8 -8 3 -21 -13z"/>
<path d="M7401 1202 c-7 -13 -6 -19 2 -19 7 0 13 9 13 19 0 10 -1 18 -3 18 -1
0 -7 -8 -12 -18z"/>
<path d="M7340 1179 c0 -5 -4 -7 -10 -4 -14 9 -12 -1 3 -13 10 -8 13 -6 14 9
1 10 0 19 -3 19 -2 0 -4 -5 -4 -11z"/>
<path d="M3476 1168 c3 -5 10 -6 15 -3 13 9 11 12 -6 12 -8 0 -12 -4 -9 -9z"/>
<path d="M7275 1159 c-4 -6 -5 -12 -2 -15 2 -3 7 2 10 11 7 17 1 20 -8 4z"/>
<path d="M3335 1150 c-3 -5 -1 -10 4 -10 6 0 11 5 11 10 0 6 -2 10 -4 10 -3 0
-8 -4 -11 -10z"/>
<path d="M3467 1149 c7 -7 15 -10 18 -7 3 3 -2 9 -12 12 -14 6 -15 5 -6 -5z"/>
<path d="M7283 1128 c-11 -19 -13 -39 -1 -32 5 3 7 9 4 12 -3 3 -1 11 5 19 6
7 9 13 6 13 -3 0 -9 -6 -14 -12z"/>
<path d="M7346 1128 c3 -5 10 -6 15 -3 13 9 11 12 -6 12 -8 0 -12 -4 -9 -9z"/>
<path d="M7419 1123 c-13 -16 -12 -17 4 -4 9 7 17 15 17 17 0 8 -8 3 -21 -13z"/>
<path d="M7519 1123 c-13 -16 -12 -17 4 -4 9 7 17 15 17 17 0 8 -8 3 -21 -13z"/>
<path d="M3553 1115 c0 -8 4 -12 9 -9 5 3 6 10 3 15 -9 13 -12 11 -12 -6z"/>
<path d="M3395 1109 c-3 -4 2 -6 10 -5 21 3 28 13 10 13 -9 0 -18 -4 -20 -8z"/>
<path d="M7240 1110 c-9 -6 -10 -10 -3 -10 6 0 15 5 18 10 8 12 4 12 -15 0z"/>
<path d="M3600 1090 c-9 -6 -10 -10 -3 -10 6 0 15 5 18 10 8 12 4 12 -15 0z"/>
<path d="M7096 1092 c-3 -4 4 -9 15 -9 23 -2 25 3 4 10 -8 4 -16 3 -19 -1z"/>
<path d="M7157 1082 c-15 -16 -15 -19 -2 -19 8 0 13 3 10 5 -3 3 0 11 6 19 17
20 5 16 -14 -5z"/>
<path d="M7417 1085 c-4 -8 -3 -16 1 -19 4 -3 9 4 9 15 2 23 -3 25 -10 4z"/>
<path d="M3747 1069 c7 -7 15 -10 18 -7 3 3 -2 9 -12 12 -14 6 -15 5 -6 -5z"/>
<path d="M7370 1069 c0 -5 5 -7 10 -4 6 3 10 8 10 11 0 2 -4 4 -10 4 -5 0 -10
-5 -10 -11z"/>
<path d="M7075 1060 c-4 -6 -10 -8 -14 -6 -4 3 -8 -1 -8 -9 0 -10 4 -12 12 -5
7 5 14 8 17 5 2 -3 5 2 5 10 0 18 -3 19 -12 5z"/>
<path d="M3550 1049 c0 -5 5 -7 10 -4 6 3 10 8 10 11 0 2 -4 4 -10 4 -5 0 -10
-5 -10 -11z"/>
<path d="M3795 1051 c-3 -5 -2 -12 3 -15 5 -3 9 1 9 9 0 17 -3 19 -12 6z"/>
<path d="M6976 1043 c-6 -14 -5 -15 5 -6 7 7 10 15 7 18 -3 3 -9 -2 -12 -12z"/>
<path d="M7290 1030 c0 -5 5 -10 11 -10 5 0 7 5 4 10 -3 6 -8 10 -11 10 -2 0
-4 -4 -4 -10z"/>
<path d="M3710 1026 c0 -2 8 -10 18 -17 15 -13 16 -12 3 4 -13 16 -21 21 -21
13z"/>
<path d="M7153 1015 c0 -8 4 -12 9 -9 5 3 6 10 3 15 -9 13 -12 11 -12 -6z"/>
<path d="M3967 1009 c7 -7 15 -10 18 -7 3 3 -2 9 -12 12 -14 6 -15 5 -6 -5z"/>
<path d="M6933 1003 c0 -9 4 -10 14 -2 7 6 13 12 13 14 0 1 -6 2 -13 2 -8 0
-14 -6 -14 -14z"/>
<path d="M7054 1012 c3 -3 22 -6 42 -8 19 -1 33 0 30 3 -3 4 -22 7 -41 8 -20
2 -34 0 -31 -3z"/>
<path d="M7255 1010 c-3 -5 -1 -10 4 -10 6 0 11 5 11 10 0 6 -2 10 -4 10 -3 0
-8 -4 -11 -10z"/>
<path d="M3636 997 c3 -10 9 -15 12 -12 3 3 0 11 -7 18 -10 9 -11 8 -5 -6z"/>
<path d="M6790 990 c-12 -7 -10 -9 7 -7 12 0 19 5 17 9 -6 10 -6 10 -24 -2z"/>
<path d="M6980 996 c0 -2 8 -10 18 -17 15 -13 16 -12 3 4 -13 16 -21 21 -21
13z"/>
<path d="M3995 979 c-4 -6 -5 -12 -2 -15 2 -3 7 2 10 11 7 17 1 20 -8 4z"/>
<path d="M3956 963 c-6 -14 -5 -15 5 -6 7 7 10 15 7 18 -3 3 -9 -2 -12 -12z"/>
<path d="M4095 970 c-3 -5 -1 -10 4 -10 6 0 11 5 11 10 0 6 -2 10 -4 10 -3 0
-8 -4 -11 -10z"/>
<path d="M6870 975 c0 -7 30 -13 34 -7 3 4 -4 9 -15 9 -10 1 -19 0 -19 -2z"/>
<path d="M7096 968 c3 -5 10 -6 15 -3 13 9 11 12 -6 12 -8 0 -12 -4 -9 -9z"/>
<path d="M3850 950 c0 -5 5 -10 11 -10 5 0 7 5 4 10 -3 6 -8 10 -11 10 -2 0
-4 -4 -4 -10z"/>
<path d="M3895 950 c-3 -5 -1 -10 4 -10 6 0 11 5 11 10 0 6 -2 10 -4 10 -3 0
-8 -4 -11 -10z"/>
<path d="M4173 937 c0 -8 6 -14 14 -14 9 0 10 4 2 14 -6 7 -12 13 -14 13 -1 0
-2 -6 -2 -13z"/>
<path d="M6743 932 c10 -10 14 -22 10 -27 -5 -4 -2 -5 5 -1 11 6 10 12 -4 27
-9 10 -19 19 -22 19 -3 0 2 -8 11 -18z"/>
<path d="M6895 939 c-4 -6 -5 -12 -2 -15 2 -3 7 2 10 11 7 17 1 20 -8 4z"/>
<path d="M3966 928 c3 -5 10 -6 15 -3 13 9 11 12 -6 12 -8 0 -12 -4 -9 -9z"/>
<path d="M4096 931 c8 -8 43 -8 38 0 -2 4 -13 7 -24 6 -10 -1 -17 -3 -14 -6z"/>
<path d="M6590 933 c0 -6 8 -17 18 -24 16 -13 16 -13 2 6 -8 11 -16 22 -17 24
-2 2 -3 0 -3 -6z"/>
<path d="M6633 920 c1 -12 10 -29 22 -38 19 -17 20 -16 4 3 -9 11 -15 28 -14
38 2 9 -1 17 -5 17 -5 0 -8 -9 -7 -20z"/>
<path d="M7150 929 c0 -5 5 -7 10 -4 6 3 10 8 10 11 0 2 -4 4 -10 4 -5 0 -10
-5 -10 -11z"/>
<path d="M7075 919 c-4 -6 -5 -12 -2 -15 2 -3 7 2 10 11 7 17 1 20 -8 4z"/>
<path d="M6519 903 c-13 -16 -12 -17 4 -4 9 7 17 15 17 17 0 8 -8 3 -21 -13z"/>
<path d="M6713 913 c4 -3 1 -13 -6 -22 -11 -14 -10 -14 6 -2 20 15 22 31 5 31
-6 0 -8 -3 -5 -7z"/>
<path d="M6970 910 c0 -5 5 -10 11 -10 5 0 7 5 4 10 -3 6 -8 10 -11 10 -2 0
-4 -4 -4 -10z"/>
<path d="M6455 899 c-4 -6 -5 -12 -2 -15 2 -3 7 2 10 11 7 17 1 20 -8 4z"/>
<path d="M6582 894 c10 -10 20 -16 22 -13 3 3 -5 11 -17 18 -21 13 -21 12 -5
-5z"/>
<path d="M6913 895 c0 -8 4 -12 9 -9 5 3 6 10 3 15 -9 13 -12 11 -12 -6z"/>
<path d="M4230 895 c0 -7 30 -13 34 -7 3 4 -4 9 -15 9 -10 1 -19 0 -19 -2z"/>
<path d="M4277 881 c-10 -12 -9 -13 3 -6 8 5 21 10 28 11 24 4 25 13 3 11 -12
-1 -28 -8 -34 -16z"/>
<path d="M6390 893 c8 -3 22 -11 30 -17 13 -10 13 -9 1 7 -7 9 -21 17 -30 16
-13 0 -14 -1 -1 -6z"/>
<path d="M7230 889 c0 -5 5 -7 10 -4 6 3 10 8 10 11 0 2 -4 4 -10 4 -5 0 -10
-5 -10 -11z"/>
<path d="M6853 875 c0 -8 4 -12 9 -9 5 3 6 10 3 15 -9 13 -12 11 -12 -6z"/>
<path d="M4346 872 c-3 -5 1 -9 9 -9 8 0 15 4 15 9 0 4 -4 8 -9 8 -6 0 -12 -4
-15 -8z"/>
<path d="M6314 841 c0 -22 3 -37 6 -35 7 8 7 74 0 74 -4 0 -7 -18 -6 -39z"/>
<path d="M6347 869 c7 -7 15 -10 18 -7 3 3 -2 9 -12 12 -14 6 -15 5 -6 -5z"/>
<path d="M6460 870 c-9 -6 -10 -10 -3 -10 6 0 15 5 18 10 8 12 4 12 -15 0z"/>
<path d="M6556 863 c-6 -14 -5 -15 5 -6 7 7 10 15 7 18 -3 3 -9 -2 -12 -12z"/>
<path d="M6933 859 c-2 -23 3 -25 10 -4 4 8 3 16 -1 19 -4 3 -9 -4 -9 -15z"/>
<path d="M4669 847 c6 -8 9 -16 6 -19 -3 -2 2 -5 10 -5 13 0 13 3 -2 19 -19
21 -31 25 -14 5z"/>
<path d="M4373 835 c0 -8 4 -12 9 -9 5 3 6 10 3 15 -9 13 -12 11 -12 -6z"/>
<path d="M4510 846 c0 -2 8 -10 18 -17 15 -13 16 -12 3 4 -13 16 -21 21 -21
13z"/>
<path d="M6229 833 c-13 -16 -12 -17 4 -4 16 13 21 21 13 21 -2 0 -10 -8 -17
-17z"/>
<path d="M6693 835 c0 -8 4 -12 9 -9 5 3 6 10 3 15 -9 13 -12 11 -12 -6z"/>
<path d="M5956 832 c-2 -4 -1 -14 4 -22 7 -11 9 -9 7 8 -1 24 -3 26 -11 14z"/>
<path d="M6119 823 c-13 -16 -12 -17 4 -4 16 13 21 21 13 21 -2 0 -10 -8 -17
-17z"/>
<path d="M6350 826 c7 -7 13 -7 20 0 6 6 3 10 -10 10 -13 0 -16 -4 -10 -10z"/>
<path d="M6766 832 c-3 -5 1 -9 9 -9 8 0 12 4 9 9 -3 4 -7 8 -9 8 -2 0 -6 -4
-9 -8z"/>
<path d="M4937 823 c-10 -9 -9 -23 1 -23 5 0 9 7 9 15 0 17 -1 18 -10 8z"/>
<path d="M6037 820 c7 -8 20 -15 29 -16 9 -1 13 1 9 4 -4 4 -10 7 -13 7 -4 0
-14 4 -22 9 -12 7 -13 6 -3 -4z"/>
<path d="M6175 820 c-4 -6 -11 -7 -17 -4 -7 4 -8 2 -4 -5 6 -9 11 -9 22 0 14
11 18 19 10 19 -3 0 -8 -5 -11 -10z"/>
<path d="M4030 816 c0 -2 7 -7 16 -10 8 -3 12 -2 9 4 -6 10 -25 14 -25 6z"/>
<path d="M4726 812 c-3 -5 1 -9 9 -9 8 0 12 4 9 9 -3 4 -7 8 -9 8 -2 0 -6 -4
-9 -8z"/>
<path d="M5813 805 c0 -8 4 -12 9 -9 5 3 6 10 3 15 -9 13 -12 11 -12 -6z"/>
<path d="M5874 798 c-19 -23 -19 -23 2 -5 11 9 24 14 27 10 4 -3 7 -1 7 5 0
19 -15 14 -36 -10z"/>
<path d="M5994 798 c-19 -23 -19 -23 2 -5 11 9 24 14 29 10 4 -5 5 -2 1 5 -9
16 -10 16 -32 -10z"/>
<path d="M6090 811 c0 -6 4 -13 10 -16 6 -3 7 1 4 9 -7 18 -14 21 -14 7z"/>
<path d="M4375 801 c-3 -5 -2 -12 3 -15 5 -3 9 1 9 9 0 17 -3 19 -12 6z"/>
<path d="M4874 796 c1 -8 5 -18 8 -22 4 -3 5 1 4 10 -1 8 -5 18 -8 22 -4 3 -5
-1 -4 -10z"/>
<path d="M5030 806 c0 -2 8 -10 18 -17 15 -13 16 -12 3 4 -13 16 -21 21 -21
13z"/>
<path d="M5390 806 c0 -2 8 -10 18 -17 15 -13 16 -12 3 4 -13 16 -21 21 -21
13z"/>
<path d="M5517 799 c7 -7 15 -10 18 -7 3 3 -2 9 -12 12 -14 6 -15 5 -6 -5z"/>
<path d="M5140 796 c0 -2 8 -10 18 -17 15 -13 16 -12 3 4 -13 16 -21 21 -21
13z"/>
<path d="M5319 783 c-13 -16 -12 -17 4 -4 9 7 17 15 17 17 0 8 -8 3 -21 -13z"/>
<path d="M5555 792 c3 -3 -1 -12 -7 -21 -8 -10 -4 -9 10 3 26 23 26 23 7 23
-8 0 -13 -3 -10 -5z"/>
<path d="M5715 792 c3 -3 -1 -12 -7 -21 -8 -10 -4 -9 10 3 26 23 26 23 7 23
-8 0 -13 -3 -10 -5z"/>
<path d="M5750 796 c0 -2 7 -7 16 -10 8 -3 12 -2 9 4 -6 10 -25 14 -25 6z"/>
<path d="M6613 779 c-2 -23 3 -25 10 -4 4 8 3 16 -1 19 -4 3 -9 -4 -9 -15z"/>
<path d="M4713 775 c0 -8 4 -12 9 -9 5 3 6 10 3 15 -9 13 -12 11 -12 -6z"/>
<path d="M5013 777 c0 -7 9 -14 20 -14 11 -1 18 -1 16 0 -2 2 -11 8 -20 15
-12 9 -16 9 -16 -1z"/>
<path d="M5217 783 c-10 -9 -9 -23 1 -23 5 0 9 7 9 15 0 17 -1 18 -10 8z"/>
<path d="M5250 786 c0 -2 8 -10 18 -17 15 -13 16 -12 3 4 -13 16 -21 21 -21
13z"/>
<path d="M5891 777 c-8 -10 -7 -14 2 -14 8 0 14 6 14 14 0 7 -1 13 -2 13 -2 0
-8 -6 -14 -13z"/>
<path d="M6136 777 c3 -10 9 -15 12 -12 3 3 0 11 -7 18 -10 9 -11 8 -5 -6z"/>
<path d="M4120 776 c0 -2 8 -10 18 -17 15 -13 16 -12 3 4 -13 16 -21 21 -21
13z"/>
<path d="M4667 769 c7 -7 15 -10 18 -7 3 3 -2 9 -12 12 -14 6 -15 5 -6 -5z"/>
<path d="M5373 764 c0 -9 4 -11 12 -4 7 5 14 9 16 7 2 -1 3 0 1 2 -7 11 -29 7
-29 -5z"/>
<path d="M5466 770 c5 -8 9 -18 9 -22 0 -3 3 -9 7 -13 3 -4 5 0 4 9 -1 9 -8
22 -16 29 -10 10 -11 9 -4 -3z"/>
<path d="M5739 763 c-13 -16 -12 -17 4 -4 16 13 21 21 13 21 -2 0 -10 -8 -17
-17z"/>
<path d="M6226 772 c-3 -5 1 -9 9 -9 8 0 12 4 9 9 -3 4 -7 8 -9 8 -2 0 -6 -4
-9 -8z"/>
<path d="M4555 760 c-4 -6 -11 -7 -17 -4 -7 4 -8 2 -4 -5 6 -9 11 -9 22 0 14
11 18 19 10 19 -3 0 -8 -5 -11 -10z"/>
<path d="M4615 750 c3 -5 8 -10 11 -10 2 0 4 5 4 10 0 6 -5 10 -11 10 -5 0 -7
-4 -4 -10z"/>
<path d="M5195 740 c10 -11 20 -20 23 -20 3 0 -3 9 -13 20 -10 11 -20 20 -23
20 -3 0 3 -9 13 -20z"/>
<path d="M5309 747 c6 -8 7 -18 3 -22 -4 -5 -1 -5 6 -1 10 6 10 11 1 22 -6 8
-14 14 -16 14 -3 0 0 -6 6 -13z"/>
<path d="M5596 743 c-6 -14 -5 -15 5 -6 7 7 10 15 7 18 -3 3 -9 -2 -12 -12z"/>
<path d="M5535 741 c-3 -5 -2 -12 3 -15 5 -3 9 1 9 9 0 17 -3 19 -12 6z"/>
<path d="M4660 730 c-9 -6 -10 -10 -3 -10 6 0 15 5 18 10 8 12 4 12 -15 0z"/>
<path d="M5233 725 c0 -8 4 -12 9 -9 5 3 6 10 3 15 -9 13 -12 11 -12 -6z"/>
<path d="M5341 726 c-9 -11 -9 -16 1 -22 7 -4 10 -4 6 1 -4 4 -3 14 3 22 6 7
9 13 6 13 -2 0 -10 -6 -16 -14z"/>
<path d="M5755 731 c-3 -5 -2 -12 3 -15 5 -3 9 1 9 9 0 17 -3 19 -12 6z"/>
<path d="M6000 730 c-9 -6 -10 -10 -3 -10 6 0 15 5 18 10 8 12 4 12 -15 0z"/>
<path d="M6286 732 c-3 -5 1 -9 9 -9 8 0 12 4 9 9 -3 4 -7 8 -9 8 -2 0 -6 -4
-9 -8z"/>
<path d="M4750 710 c0 -5 5 -10 11 -10 5 0 7 5 4 10 -3 6 -8 10 -11 10 -2 0
-4 -4 -4 -10z"/>
<path d="M4886 708 c3 -5 10 -6 15 -3 13 9 11 12 -6 12 -8 0 -12 -4 -9 -9z"/>
<path d="M4975 710 c-3 -5 -1 -10 4 -10 6 0 11 5 11 10 0 6 -2 10 -4 10 -3 0
-8 -4 -11 -10z"/>
<path d="M6135 710 c-3 -5 -1 -10 4 -10 6 0 11 5 11 10 0 6 -2 10 -4 10 -3 0
-8 -4 -11 -10z"/>
<path d="M5114 696 c1 -8 5 -18 8 -22 4 -3 5 1 4 10 -1 8 -5 18 -8 22 -4 3 -5
-1 -4 -10z"/>
<path d="M5710 706 c0 -2 8 -10 18 -17 15 -13 16 -12 3 4 -13 16 -21 21 -21
13z"/>
<path d="M5414 686 c1 -8 5 -18 8 -22 4 -3 5 1 4 10 -1 8 -5 18 -8 22 -4 3 -5
-1 -4 -10z"/>
<path d="M5993 685 c0 -8 4 -12 9 -9 5 3 6 10 3 15 -9 13 -12 11 -12 -6z"/>
<path d="M5333 675 c0 -8 4 -12 9 -9 5 3 6 10 3 15 -9 13 -12 11 -12 -6z"/>
<path d="M5453 665 c0 -8 4 -12 9 -9 5 3 6 10 3 15 -9 13 -12 11 -12 -6z"/>
<path d="M5535 669 c-3 -4 2 -6 10 -5 21 3 28 13 10 13 -9 0 -18 -4 -20 -8z"/>
<path d="M5635 669 c-3 -4 2 -6 10 -5 21 3 28 13 10 13 -9 0 -18 -4 -20 -8z"/>
<path d="M5755 669 c-3 -4 2 -6 10 -5 21 3 28 13 10 13 -9 0 -18 -4 -20 -8z"/>
</g>
</svg>
